<svg width="24" height="24" viewBox="0 0 24 24" fill="none" xmlns="http://www.w3.org/2000/svg">
<rect width="24" height="24" rx="5" fill="#717982"/>
<path d="M8.32528 17V15.4489L11.9496 12.093C12.2578 11.7947 12.5163 11.5263 12.7251 11.2876C12.9373 11.049 13.098 10.8153 13.2074 10.5866C13.3168 10.3546 13.3714 10.1044 13.3714 9.83594C13.3714 9.53764 13.3035 9.28078 13.1676 9.06534C13.0317 8.84659 12.8461 8.67921 12.6108 8.56321C12.3755 8.44389 12.1087 8.38423 11.8104 8.38423C11.4988 8.38423 11.227 8.44721 10.995 8.57315C10.763 8.6991 10.584 8.87973 10.4581 9.11506C10.3321 9.35038 10.2692 9.63044 10.2692 9.95526H8.22585C8.22585 9.28906 8.37666 8.7107 8.67827 8.22017C8.97988 7.72964 9.40246 7.35014 9.94602 7.08168C10.4896 6.81321 11.116 6.67898 11.8253 6.67898C12.5545 6.67898 13.1892 6.80824 13.7294 7.06676C14.273 7.32197 14.6955 7.67661 14.9972 8.13068C15.2988 8.58475 15.4496 9.10511 15.4496 9.69176C15.4496 10.0762 15.3733 10.4557 15.2209 10.8303C15.0717 11.2048 14.8049 11.6207 14.4205 12.0781C14.036 12.5322 13.4941 13.0774 12.7947 13.7138L11.3082 15.1705V15.2401H15.5838V17H8.32528Z" fill="white"/>
</svg>
