<svg width="24" height="24" viewBox="0 0 24 24" fill="none" xmlns="http://www.w3.org/2000/svg">
<rect width="24" height="24" rx="5" fill="#717982"/>
<path d="M11.733 17.1392C11.2093 17.1359 10.7038 17.0481 10.2166 16.8757C9.73272 16.7034 9.29853 16.4233 8.91406 16.0355C8.52959 15.6477 8.22467 15.134 7.99929 14.4943C7.77723 13.8546 7.66619 13.0691 7.66619 12.1378C7.66951 11.2827 7.76728 10.5187 7.95952 9.84588C8.15507 9.16974 8.43348 8.59635 8.79474 8.12571C9.15933 7.65507 9.59517 7.29711 10.1023 7.05185C10.6094 6.80327 11.1778 6.67898 11.8075 6.67898C12.487 6.67898 13.0869 6.81155 13.6072 7.0767C14.1276 7.33854 14.5452 7.69484 14.8601 8.1456C15.1783 8.59635 15.3705 9.1018 15.4368 9.66193H13.3139C13.2311 9.30729 13.0571 9.02888 12.7919 8.8267C12.5268 8.62453 12.1986 8.52344 11.8075 8.52344C11.1446 8.52344 10.6409 8.81179 10.2962 9.38849C9.95478 9.9652 9.78078 10.7491 9.77415 11.7401H9.84375C9.99621 11.4384 10.2017 11.1816 10.4602 10.9695C10.7221 10.754 11.0187 10.59 11.3501 10.4773C11.6849 10.3613 12.0379 10.3033 12.4091 10.3033C13.0123 10.3033 13.5492 10.4458 14.0199 10.7308C14.4905 11.0125 14.8617 11.4003 15.1335 11.8942C15.4053 12.388 15.5412 12.9531 15.5412 13.5895C15.5412 14.2789 15.3804 14.892 15.0589 15.429C14.7408 15.9659 14.295 16.3868 13.7216 16.6918C13.1515 16.9934 12.4886 17.1425 11.733 17.1392ZM11.723 15.4489C12.0545 15.4489 12.3511 15.3693 12.6129 15.2102C12.8748 15.0511 13.0803 14.8357 13.2294 14.5639C13.3786 14.2921 13.4531 13.9872 13.4531 13.6491C13.4531 13.3111 13.3786 13.0078 13.2294 12.7393C13.0836 12.4709 12.8814 12.2571 12.6229 12.098C12.3643 11.9389 12.0694 11.8594 11.7379 11.8594C11.4893 11.8594 11.259 11.9058 11.0469 11.9986C10.8381 12.0914 10.6541 12.2206 10.495 12.3864C10.3393 12.5521 10.2166 12.7443 10.1271 12.9631C10.0376 13.1785 9.9929 13.4089 9.9929 13.6541C9.9929 13.9822 10.0675 14.2822 10.2166 14.554C10.3691 14.8258 10.5746 15.0429 10.8331 15.2053C11.0949 15.3677 11.3916 15.4489 11.723 15.4489Z" fill="white"/>
</svg>
