<svg width="26" height="26" viewBox="0 0 24 24" fill="none" xmlns="http://www.w3.org/2000/svg">
    <g clip-path="url(#clip0_206_2124)">
        <path d="M7.5905 10.2268H10.2268V7.5905L7.15111 4.51478C8.13502 4.04487 9.24041 3.89156 10.3151 4.07594C11.3897 4.26032 12.3808 4.77333 13.1518 5.54433C13.9228 6.31533 14.4358 7.3064 14.6202 8.38105C14.8046 9.45571 14.6512 10.5611 14.1813 11.545L19.454 16.8177C19.8036 17.1673 20 17.6414 20 18.1358C20 18.6302 19.8036 19.1044 19.454 19.454C19.1044 19.8036 18.6302 20 18.1358 20C17.6414 20 17.1673 19.8036 16.8177 19.454L11.545 14.1813C10.5611 14.6512 9.45571 14.8046 8.38105 14.6202C7.3064 14.4358 6.31533 13.9228 5.54433 13.1518C4.77333 12.3808 4.26032 11.3897 4.07594 10.3151C3.89156 9.24041 4.04487 8.13502 4.51478 7.15111L7.5905 10.2268Z"
              stroke="currentColor" stroke-width="1.5" stroke-linecap="round" stroke-linejoin="round"/>
    </g>
    <defs>
        <clipPath id="clip0_206_2124">
            <rect width="24" height="24" fill="white"/>
        </clipPath>
    </defs>
</svg>
