<svg width="26" height="26" viewBox="0 0 24 24" fill="none" xmlns="http://www.w3.org/2000/svg">
    <g clip-path="url(#clip0_405_6031)">
        <path d="M5 19.6154V17.7692C5 16.79 5.38901 15.8508 6.08145 15.1584C6.77389 14.4659 7.71305 14.0769 8.69231 14.0769H11M17.0009 19.6154C16.5113 19.6154 16.0417 19.4209 15.6955 19.0747C15.3493 18.7284 15.1548 18.2589 15.1548 17.7692C15.1548 17.2796 15.3493 16.81 15.6955 16.4638C16.0417 16.1176 16.5113 15.9231 17.0009 15.9231M17.0009 19.6154C17.4906 19.6154 17.9601 19.4209 18.3063 19.0747C18.6526 18.7284 18.8471 18.2589 18.8471 17.7692C18.8471 17.2796 18.6526 16.81 18.3063 16.4638C17.9601 16.1176 17.4906 15.9231 17.0009 15.9231M17.0009 19.6154V21M17.0009 15.9231V14.5385M19.7988 16.1538L18.5997 16.8462M15.4031 18.6923L14.2031 19.3846M14.2031 16.1538L15.4031 16.8462M18.5997 18.6923L19.7997 19.3846M6.84615 6.69231C6.84615 7.67157 7.23516 8.61072 7.92761 9.30316C8.62005 9.99561 9.5592 10.3846 10.5385 10.3846C11.5177 10.3846 12.4569 9.99561 13.1493 9.30316C13.8418 8.61072 14.2308 7.67157 14.2308 6.69231C14.2308 5.71305 13.8418 4.77389 13.1493 4.08145C12.4569 3.38901 11.5177 3 10.5385 3C9.5592 3 8.62005 3.38901 7.92761 4.08145C7.23516 4.77389 6.84615 5.71305 6.84615 6.69231Z"
              stroke="currentColor" stroke-width="1.5" stroke-linecap="round" stroke-linejoin="round"/>
    </g>
    <defs>
        <clipPath id="clip0_405_6031">
            <rect width="24" height="24" fill="white"/>
        </clipPath>
    </defs>
</svg>
