<svg width="24" height="24" viewBox="0 0 24 24" fill="none" xmlns="http://www.w3.org/2000/svg">
<rect width="24" height="24" rx="5" fill="#717982"/>
<path d="M11.544 17.1392C10.8414 17.1392 10.215 17.0099 9.66477 16.7514C9.1179 16.4929 8.68371 16.1366 8.36222 15.6825C8.04072 15.2285 7.87334 14.7081 7.86009 14.1214H9.94815C9.97135 14.5159 10.1371 14.8357 10.4453 15.081C10.7536 15.3262 11.1198 15.4489 11.544 15.4489C11.8821 15.4489 12.1804 15.3743 12.4389 15.2251C12.7008 15.0727 12.9046 14.8622 13.0504 14.5938C13.1996 14.322 13.2741 14.0104 13.2741 13.6591C13.2741 13.3011 13.1979 12.9863 13.0455 12.7145C12.8963 12.4427 12.6892 12.2306 12.424 12.0781C12.1589 11.9257 11.8556 11.8478 11.5142 11.8445C11.2159 11.8445 10.9259 11.9058 10.6442 12.0284C10.3658 12.151 10.1487 12.3184 9.9929 12.5305L8.07884 12.1875L8.56108 6.81818H14.7855V8.57812H10.3359L10.0724 11.1286H10.1321C10.3111 10.8767 10.5812 10.6679 10.9425 10.5021C11.3037 10.3364 11.7081 10.2536 12.1555 10.2536C12.7687 10.2536 13.3156 10.3977 13.7962 10.6861C14.2768 10.9744 14.6562 11.3705 14.9347 11.8743C15.2131 12.3748 15.3506 12.9515 15.3473 13.6044C15.3506 14.2905 15.1915 14.9003 14.87 15.4339C14.5518 15.9643 14.1061 16.3819 13.5327 16.6868C12.9626 16.9884 12.2997 17.1392 11.544 17.1392Z" fill="white"/>
</svg>
