<svg width="24" height="24" viewBox="0 0 24 24" fill="none" xmlns="http://www.w3.org/2000/svg">
<rect width="24" height="24" rx="5" fill="#717982"/>
<path d="M11.5888 17.1392C10.8464 17.1392 10.1851 17.0116 9.60511 16.7564C9.02841 16.4979 8.57268 16.1432 8.23793 15.6925C7.90649 15.2384 7.7358 14.7147 7.72585 14.1214H9.89347C9.90672 14.37 9.98793 14.5888 10.1371 14.7777C10.2895 14.9633 10.4917 15.1075 10.7436 15.2102C10.9955 15.313 11.2789 15.3643 11.5938 15.3643C11.9219 15.3643 12.2119 15.3063 12.4638 15.1903C12.7157 15.0743 12.9129 14.9136 13.0554 14.7081C13.1979 14.5026 13.2692 14.2656 13.2692 13.9972C13.2692 13.7254 13.1929 13.4851 13.0405 13.2763C12.8913 13.0642 12.6759 12.8984 12.3942 12.7791C12.1158 12.6598 11.7843 12.6001 11.3999 12.6001H10.4503V11.0192H11.3999C11.7247 11.0192 12.0114 10.9628 12.2599 10.8501C12.5118 10.7375 12.7074 10.5817 12.8466 10.3828C12.9858 10.1806 13.0554 9.94531 13.0554 9.67685C13.0554 9.42164 12.9941 9.19792 12.8714 9.00568C12.7521 8.81013 12.5831 8.65767 12.3643 8.5483C12.1489 8.43892 11.897 8.38423 11.6087 8.38423C11.317 8.38423 11.0502 8.43726 10.8082 8.54332C10.5663 8.64607 10.3724 8.79356 10.2266 8.9858C10.0807 9.17803 10.0028 9.40341 9.9929 9.66193H7.92969C7.93963 9.07528 8.10701 8.55824 8.43182 8.1108C8.75663 7.66335 9.19413 7.31368 9.74432 7.06179C10.2978 6.80658 10.9226 6.67898 11.6186 6.67898C12.3213 6.67898 12.9361 6.80658 13.4631 7.06179C13.9901 7.317 14.3994 7.66169 14.6911 8.09588C14.986 8.52675 15.1319 9.01065 15.1286 9.54758C15.1319 10.1177 14.9545 10.5933 14.5966 10.9744C14.242 11.3556 13.7796 11.5975 13.2095 11.7003V11.7798C13.9586 11.8759 14.5286 12.1361 14.9197 12.5604C15.3142 12.9813 15.5097 13.5083 15.5064 14.1413C15.5097 14.7214 15.3423 15.2367 15.0043 15.6875C14.6695 16.1383 14.2071 16.4929 13.6172 16.7514C13.0272 17.0099 12.3511 17.1392 11.5888 17.1392Z" fill="white"/>
</svg>
