<svg width="26" height="26" viewBox="0 0 24 24" fill="none" xmlns="http://www.w3.org/2000/svg">
<g clip-path="url(#clip0_206_2135)">
<path d="M13.5556 9.11111V7.55556C13.5556 7.143 13.3917 6.74733 13.0999 6.45561C12.8082 6.16389 12.4126 6 12 6H6.55556C6.143 6 5.74733 6.16389 5.45561 6.45561C5.16389 6.74733 5 7.143 5 7.55556V16.8889C5 17.3014 5.16389 17.6971 5.45561 17.9888C5.74733 18.2806 6.143 18.4444 6.55556 18.4444H12C12.4126 18.4444 12.8082 18.2806 13.0999 17.9888C13.3917 17.6971 13.5556 17.3014 13.5556 16.8889V15.3333M9.66667 12.2222H19M19 12.2222L16.6667 9.88889M19 12.2222L16.6667 14.5556" stroke="#DBF5E9" stroke-width="1.5" stroke-linecap="round" stroke-linejoin="round"/>
</g>
<defs>
<clipPath id="clip0_206_2135">
<rect width="24" height="24" fill="white"/>
</clipPath>
</defs>
</svg>
