<svg width="139" height="50" viewBox="0 0 139 50" fill="none" xmlns="http://www.w3.org/2000/svg">
<path d="M2.66434 23.8011C3.28601 12.3446 12.4334 3.37479 23.5347 2.66431C15.9858 5.95027 10.4796 13.2327 10.0356 22.1137C9.4139 34.4583 18.8278 44.9378 31.1723 45.6483C32.0604 45.7371 32.9485 45.6483 33.7478 45.6483C30.7283 46.9805 27.3535 47.6021 23.8011 47.4245C11.5453 46.714 2.04267 36.1457 2.66434 23.8011Z" fill="white"/>
<path d="M11.279 22.1137C11.3678 20.4263 11.6342 18.739 12.1671 17.1404C11.9895 18.1173 11.8119 19.0942 11.8119 20.0711C11.1902 30.1954 18.9167 38.7212 28.9522 39.2541C37.5667 39.6981 45.1156 34.1031 47.3358 26.1102C46.9806 33.5702 42.9842 39.9645 37.1227 43.7834C35.2577 44.2274 33.2151 44.405 31.1724 44.3162C19.6271 43.6946 10.6573 33.7478 11.279 22.1137Z" fill="white"/>
<path d="M21.048 18.4726C21.048 18.3838 21.048 18.295 21.1369 18.295C21.1369 18.295 21.2257 18.3838 21.2257 18.4726C21.2257 18.5614 21.2257 18.6502 21.1369 18.6502C21.1369 18.6502 21.048 18.5614 21.048 18.4726ZM20.6928 18.4726C20.6928 18.3838 20.7816 18.2062 20.8704 18.2062C20.9592 18.2062 21.048 18.295 21.048 18.4726C21.048 18.5614 20.9592 18.739 20.8704 18.739C20.7816 18.6502 20.6928 18.5614 20.6928 18.4726ZM20.3376 18.5614C20.3376 18.4726 20.3376 18.4726 20.4264 18.4726C20.5152 18.4726 20.5152 18.4726 20.5152 18.5614C20.5152 18.6502 20.5152 18.6502 20.4264 18.6502C20.4264 18.6502 20.3376 18.6502 20.3376 18.5614ZM20.0711 18.0286C20.0711 17.9397 20.1599 17.9397 20.3376 17.9397C20.5152 17.9397 20.604 18.0286 20.604 18.0286C20.604 18.1174 20.5152 18.1174 20.3376 18.1174C20.1599 18.1174 20.0711 18.0286 20.0711 18.0286ZM41.0303 22.8243C41.0303 22.7355 41.0303 22.6467 41.1191 22.6467C41.1191 22.6467 41.2079 22.7355 41.2079 22.8243C41.2079 22.9131 41.2079 23.0019 41.1191 23.0019C41.0303 23.0907 41.0303 22.9131 41.0303 22.8243ZM41.2967 22.6467C41.2967 22.6467 41.3855 22.5579 41.4743 22.5579C41.5631 22.5579 41.652 22.5579 41.652 22.6467C41.652 22.6467 41.5631 22.7355 41.4743 22.7355C41.3855 22.7355 41.2967 22.7355 41.2967 22.6467ZM41.2967 22.025C41.2967 21.8474 41.2967 21.6698 41.3855 21.6698C41.4743 21.6698 41.4743 21.8474 41.4743 22.025C41.4743 22.2026 41.4743 22.3802 41.3855 22.3802C41.2967 22.469 41.2967 22.2914 41.2967 22.025ZM41.3855 21.4033C41.3855 21.3145 41.4743 21.3145 41.5631 21.3145C41.652 21.3145 41.7408 21.3145 41.7408 21.4033C41.7408 21.4921 41.652 21.4921 41.5631 21.4921C41.3855 21.4921 41.3855 21.4033 41.3855 21.4033ZM41.5631 20.0712C41.652 19.8048 41.8296 19.6271 41.8296 19.7159C41.9184 19.7159 41.8296 19.9824 41.7408 20.16C41.652 20.4264 41.4743 20.604 41.4743 20.5152C41.4743 20.5152 41.4743 20.3376 41.5631 20.0712ZM28.7745 14.3873C28.7745 14.2985 28.8633 14.1209 28.9521 14.1209C29.0409 14.1209 29.1297 14.2097 29.1297 14.3873C29.1297 14.4762 29.0409 14.6538 28.9521 14.6538C28.8633 14.6538 28.7745 14.565 28.7745 14.3873ZM31.5276 15.1866L31.794 15.2754H31.6164L31.5276 15.1866ZM28.1528 14.4762C28.1528 14.3873 28.1528 14.3873 28.2416 14.3873C28.3305 14.3873 28.3305 14.3873 28.3305 14.4762C28.3305 14.565 28.3305 14.565 28.2416 14.565C28.1528 14.565 28.1528 14.565 28.1528 14.4762ZM33.8367 14.1209L34.0143 14.3873C34.0143 14.3873 33.9255 14.2985 33.6591 14.565C33.3926 14.8314 34.2807 15.2754 34.3695 14.9202C34.4583 14.565 34.1919 14.2097 34.1919 14.2097C34.1919 14.2097 34.1919 13.9433 33.8367 13.7657C33.4814 13.6769 33.9255 13.4104 34.0143 13.5881C34.1919 13.7657 34.2807 13.5881 34.2807 13.5881C34.2807 13.5881 34.3695 12.9664 33.9255 13.2328C33.4814 13.5881 33.5702 12.9664 33.3926 13.4992C33.215 14.0321 33.8367 14.1209 33.8367 14.1209ZM37.1226 10.1245C37.1226 10.1245 40.231 11.6342 41.7408 15.4531C41.7408 15.4531 41.5631 15.7195 41.7408 15.9859C41.9184 16.2524 41.8296 16.6964 41.652 16.5188C41.4743 16.3412 41.5631 15.9859 41.5631 15.9859C41.5631 15.9859 41.2967 15.9859 41.3855 15.5419C41.4743 15.0978 41.2967 15.8083 41.2079 15.6307C41.1191 15.4531 40.9415 15.1866 40.9415 15.1866C40.9415 15.1866 40.675 15.7195 40.9415 15.7195C41.2079 15.8083 41.2967 15.8083 41.2079 16.0747C41.1191 16.3412 41.0303 16.1635 41.2967 16.6076C41.5631 17.0516 41.4743 17.6733 41.1191 17.7621C40.7639 17.8509 41.3855 18.0286 41.0303 18.1174C40.675 18.2062 40.4974 18.0286 40.4974 18.2062C40.4974 18.3838 40.8527 18.3838 40.7639 18.6502C40.675 19.0055 40.4086 18.5614 40.4086 18.5614C40.4086 18.5614 40.4974 18.1174 40.3198 18.1174C40.1422 18.2062 40.231 18.8278 40.4974 19.0055C40.8527 19.2719 40.675 19.9824 40.4086 19.8936C40.1422 19.8936 40.231 20.0712 40.231 20.16C40.231 20.0712 40.0534 19.5383 39.8758 19.4495C39.6981 19.2719 39.9646 20.16 39.7869 20.0712C39.6981 20.0712 39.9646 20.4264 39.9646 20.4264L40.0534 20.9593C40.0534 20.9593 40.4086 21.4921 40.1422 21.4033C39.9646 21.3145 39.6981 20.7817 39.7869 20.5152C39.8758 20.16 39.3429 20.16 39.6093 19.8047C39.8758 19.4495 39.2541 19.0943 39.5205 18.8278C39.7869 18.5614 39.2541 18.6502 39.2541 18.9166C39.2541 19.1831 39.1653 18.295 38.9877 18.1174C38.81 17.9397 38.8988 17.5845 38.8988 17.5845C38.8988 17.5845 38.5436 18.0286 38.366 17.8509C38.1884 17.6733 38.2772 18.295 38.0107 18.5614C37.7443 18.8278 37.7443 18.8278 37.7443 19.0943C37.8331 19.4495 37.6555 19.8936 37.6555 19.8936C37.6555 19.8936 37.9219 19.6271 37.9219 20.0712C37.9219 20.4264 38.0107 20.9593 37.8331 20.6928C37.6555 20.4264 37.5667 19.9824 37.5667 19.9824C37.5667 19.9824 37.5667 20.4264 37.4779 20.3376C37.3003 20.2488 37.3891 19.7159 37.3891 19.7159C37.3891 19.7159 36.945 19.7159 36.945 18.9166C36.945 18.1174 36.4122 18.4726 36.5898 17.7621C36.5898 17.7621 36.1457 17.7621 36.1457 17.3181C36.1457 16.7852 35.7905 17.1405 35.7905 16.9628C35.7905 16.7852 35.3464 17.4069 34.9024 16.9628C34.4583 16.6076 34.636 16.5188 34.2807 16.6076C33.9255 16.7852 33.8367 15.9859 33.6591 15.8971C33.8367 15.9859 33.7479 16.2524 33.7479 16.2524L34.0143 16.6076C34.0143 16.6076 34.1031 16.3412 34.1031 16.43C34.1919 16.5188 34.1031 16.7852 34.1031 16.7852L34.3695 17.1405C34.3695 17.1405 34.7248 17.0516 34.7248 16.9628C34.7248 16.7852 34.9024 16.9628 34.9024 16.9628C34.9024 16.9628 35.4353 17.3181 35.2576 17.4957C35.08 17.6733 35.2576 18.0286 34.9024 18.3838C34.5472 18.739 34.1919 18.8278 34.1919 18.8278C34.1919 18.8278 33.7479 19.1831 33.6591 19.1831C33.4814 19.0943 33.1262 18.8278 33.1262 18.4726C33.1262 18.1174 32.5045 17.5845 32.5045 17.3181C32.5045 17.0516 32.1493 16.6076 32.1493 16.5188C32.1493 16.3412 31.9717 16.43 31.8829 16.3412C31.794 16.2524 31.9717 16.7852 31.9717 16.7852L32.6821 18.3838C32.6821 18.3838 32.8598 19.0943 33.0374 19.0943C33.3038 19.0943 33.3926 19.2719 33.3926 19.4495C33.3926 19.6271 33.215 19.8048 33.8367 19.5383C34.4583 19.2719 34.636 19.3607 34.4583 19.8936C34.1919 20.4264 33.9255 20.9593 33.9255 21.0481C34.0143 21.2257 33.4814 21.2257 33.3926 21.4921C33.3038 21.8474 33.0374 22.469 32.9486 22.3802C32.8598 22.3802 32.9486 22.8243 33.1262 23.0019C33.3038 23.1795 33.4814 23.446 33.3926 23.7124C33.215 23.9788 33.4814 24.1564 33.1262 24.3341C32.8598 24.6005 32.5933 24.6005 32.6821 24.8669C32.8598 25.1333 32.9486 25.2222 32.6821 25.311C32.4157 25.3998 32.6821 25.5774 32.5933 25.6662C32.5045 25.755 31.9717 26.1991 31.9717 26.1991C31.9717 26.1991 31.6164 26.2879 31.4388 26.1991C31.2612 26.0214 31.1724 26.5543 30.9948 26.2879C30.9059 26.0214 30.9059 25.8438 30.6395 25.6662C30.4619 25.4886 30.1955 25.4886 30.1955 25.1333C30.1955 24.7781 29.485 24.4229 29.485 23.89C29.485 23.3571 29.7514 23.6236 29.5738 23.0019C29.3962 22.3802 29.3962 22.2026 29.1297 22.1138C28.8633 21.9362 28.5969 22.2914 28.8633 21.2257C29.1297 20.16 28.5081 20.8705 28.5081 20.8705C28.5081 20.8705 28.3305 20.9593 28.1528 20.6928C27.8864 20.3376 27.8864 20.4264 27.62 20.5152C27.3535 20.604 27.2647 20.9593 26.9095 20.604C26.6431 20.2488 26.6431 20.8705 26.6431 20.8705C26.6431 20.8705 26.0214 20.4264 26.1102 20.2488C26.199 20.0712 26.2878 19.9824 25.8438 19.8047C25.4885 19.6271 25.3997 19.4495 25.4885 19.2719C25.5774 19.0943 25.2221 19.0055 25.4885 18.6502C25.755 18.295 25.3997 17.9397 25.6662 17.4957C25.9326 17.0516 25.8438 16.6964 26.2878 16.6076C26.7319 16.5188 26.2878 16.5188 26.2878 16.5188C26.2878 16.5188 26.4654 15.6307 26.9095 15.6307C27.2647 15.6307 26.6431 15.3643 26.6431 15.3643C26.6431 15.3643 26.4654 15.0978 26.5543 14.8314C26.7319 14.565 26.4655 14.1209 26.8207 14.1209C27.1759 14.1209 27.4424 14.3873 27.5312 14.1209C27.62 13.8545 27.62 13.4104 27.2647 13.5881C26.9095 13.6769 27.62 12.9664 27.8864 13.144C27.7976 13.144 27.5312 12.9664 27.4424 12.9664C27.3535 13.0552 27.3535 13.0552 27.3535 13.0552C27.3535 13.0552 27.3535 12.9664 27.4424 12.9664C27.5312 12.8776 27.62 12.6111 27.62 12.6111L27.5312 12.3447C27.5312 12.3447 27.7088 12.7 27.2647 12.8776C26.8207 13.144 26.9095 12.4335 26.9095 12.4335C26.9095 12.4335 27.4424 12.3447 27.4424 12.2559C27.4424 12.0783 27.5312 12.0783 27.7088 11.9007C27.8864 11.723 28.2416 11.6342 28.1528 11.9895C28.064 12.3447 28.3305 12.6111 28.3305 12.6111C28.3305 12.6111 28.6857 12.6111 28.7745 12.4335C28.8633 12.2559 29.1297 12.2559 29.1297 12.2559C29.1297 12.2559 29.0409 11.9895 29.1297 11.9007C29.2186 11.8119 29.3962 11.9007 29.485 11.9895C29.485 12.1671 29.7514 12.2559 29.7514 12.2559L30.1067 12.0783L30.5507 11.9895C30.5507 11.9895 30.4619 11.6342 30.6395 11.5454C30.8171 11.4566 31.2612 11.1014 31.35 11.3678C31.4388 11.6342 31.6164 10.7461 31.35 10.8349C31.0836 10.9238 31.2612 11.1014 30.9059 11.1902C30.5507 11.279 30.5507 11.0126 30.5507 11.0126L30.9059 10.6573C30.9059 10.6573 30.8171 10.4797 30.5507 10.6573C30.3731 10.8349 30.1955 10.8349 30.1955 11.0126C30.1955 11.1902 30.3731 11.3678 30.1067 11.4566C29.8402 11.5454 29.8402 11.8119 29.8402 11.8119C29.8402 11.8119 29.3962 11.8119 29.3962 11.5454C29.3074 11.3678 29.485 11.1014 29.1297 11.3678C28.7745 11.6342 28.5969 11.6342 28.6857 11.3678C28.8633 11.1902 29.3074 10.9238 29.3962 10.8349C29.485 10.8349 29.7514 10.7461 29.7514 10.5685C29.7514 10.3909 30.1067 9.94685 30.4619 10.1245C30.8171 10.2133 31.2612 9.76923 31.2612 9.76923C31.2612 9.76923 30.7283 8.88113 29.5738 9.59161C28.4193 10.3021 28.2416 9.76923 28.6857 9.76923C29.1297 9.85804 29.2186 9.5028 29.485 9.32518C29.7514 9.14756 29.485 8.6147 28.9521 9.05875C28.4193 9.5028 27.62 9.32518 27.62 9.32518L27.7088 9.05875C27.7088 9.05875 28.9521 8.34827 31.1724 8.34827C33.3926 8.34827 34.3695 8.88113 35.3464 9.05875C36.2345 9.32518 35.08 9.32518 34.9024 9.32518C34.7248 9.23637 33.5702 8.96994 33.5702 8.96994C33.5702 8.96994 33.5702 9.41399 33.0374 9.23637C32.5045 9.05875 30.4619 8.88113 31.35 8.96994C32.1493 9.05875 31.7052 9.32518 31.5276 9.32518C31.7052 9.32518 32.0605 9.23637 32.0605 9.23637C32.0605 9.23637 31.5276 9.85804 31.7052 9.68042C31.9717 9.5028 32.2381 9.14756 32.5045 9.41399C32.8598 9.68042 32.3269 9.5028 32.1493 9.68042C31.8829 9.85804 31.9717 9.76923 32.1493 9.94685C32.4157 10.1245 32.5933 10.1245 32.5933 10.1245H32.8598L33.1262 10.0357L33.5702 10.2133L33.9255 10.1245L34.1919 9.94685C34.1919 9.94685 33.4814 9.94685 33.5702 9.68042C33.6591 9.41399 34.1919 9.76923 34.2807 9.5028C34.3695 9.23637 35.3464 9.85804 35.8793 9.5028C36.4122 9.14756 35.8793 9.68042 35.8793 9.68042C35.8793 9.68042 35.2576 9.76923 35.08 9.76923C34.9024 9.76923 34.4583 9.59161 34.5472 9.85804C34.5472 10.0357 34.8136 10.3021 34.8136 10.3021C34.8136 10.3021 35.08 9.94685 35.4353 10.1245C35.7905 10.3909 35.5241 9.68042 36.0569 10.0357C36.5898 10.3909 36.1457 9.5028 36.4122 9.59161C36.7674 9.68042 36.3234 9.94685 36.7674 10.1245C37.2115 10.3021 37.1226 10.1245 37.1226 10.1245ZM31.4388 9.59161C31.35 9.59161 31.35 9.59161 31.4388 9.59161V9.59161ZM27.4424 15.2754C27.4424 15.2754 27.8864 14.9202 28.1528 14.8314C28.4193 14.7426 28.7745 14.9202 28.9521 14.8314C29.1297 14.7426 29.2186 14.9202 29.2186 15.1866C29.2186 15.4531 28.6857 15.6307 28.9521 15.6307C29.2186 15.6307 29.3074 15.3643 29.485 15.5419C29.7514 15.6307 29.7514 15.9859 30.0178 15.8971C30.2843 15.8083 30.4619 15.3643 30.6395 15.5419C30.8171 15.6307 30.9948 15.8971 31.1724 15.8971C31.35 15.8971 31.6164 15.9859 31.7052 15.8971C31.794 15.8083 32.5045 16.2524 32.3269 15.8083C32.1493 15.3643 32.2381 15.0978 32.2381 15.0978H31.794C31.794 15.0978 31.4388 14.9202 31.35 14.9202C31.2612 14.9202 31.0836 15.1866 31.0836 15.0978C30.9948 15.009 31.0836 14.8314 31.0836 14.8314L30.9948 14.7426L31.0836 14.3873V14.2097L31.35 14.1209C31.35 14.1209 31.9717 13.8545 32.1493 14.0321C32.5933 14.4762 32.8598 14.1209 32.8598 14.1209C32.8598 14.1209 32.4157 13.8545 32.5933 13.7657C32.771 13.6769 32.6821 13.4104 32.5045 13.4104C32.3269 13.4992 32.2381 13.5881 32.1493 13.5881C32.0605 13.4992 31.794 13.5881 31.794 13.5881L31.6164 13.3216L31.35 13.5881L31.1724 13.9433L31.0836 14.1209L30.9948 13.9433L30.8171 14.2097H31.0836L30.9059 14.3873L30.7283 14.4762L30.9059 14.7426C30.9059 14.7426 30.7283 14.9202 30.7283 15.0978C30.8171 15.2754 30.6395 15.2754 30.6395 15.2754C30.6395 15.2754 30.2843 15.009 30.4619 14.7426C30.6395 14.4762 30.5507 14.565 30.3731 14.4762C30.2843 14.3873 30.0178 14.1209 30.0178 14.1209L29.485 13.7657L29.5738 14.0321L29.929 14.2985L30.1067 14.3873C30.1067 14.3873 30.1955 14.6538 30.1067 14.6538C30.0178 14.6538 29.929 14.565 29.929 14.7426C29.929 14.9202 29.7514 15.009 29.7514 15.009C29.7514 15.009 29.7514 15.2754 29.6626 15.2754C29.5738 15.1866 29.5738 15.009 29.3962 14.9202C29.3074 14.8314 29.3074 14.6538 29.485 14.7426C29.6626 14.8314 29.7514 14.7426 29.7514 14.565C29.7514 14.3873 29.3074 14.565 29.2186 14.3873C29.2186 14.2097 29.0409 14.0321 28.9521 14.0321C28.8633 14.0321 28.6857 14.2097 28.6857 14.2097L28.2416 14.2985C28.2416 14.2985 28.3305 14.2985 28.1528 14.4762C27.9752 14.6538 27.8864 14.6538 27.8864 14.8314C27.8864 14.9202 27.7976 14.9202 27.62 15.009C27.5312 14.8314 27.5312 15.0978 27.5312 15.0978L27.4424 15.2754ZM32.1493 21.5809C32.1493 21.7586 32.1493 21.8474 32.2381 21.8474C32.3269 21.8474 32.3269 21.7586 32.3269 21.5809C32.3269 21.4033 32.3269 21.3145 32.2381 21.3145C32.1493 21.3145 32.1493 21.4033 32.1493 21.5809ZM41.3855 19.2719C41.3855 19.0055 41.4743 18.739 41.5631 18.739C41.652 18.739 41.7408 19.0055 41.7408 19.2719C41.7408 19.5383 41.652 19.8047 41.5631 19.8047C41.3855 19.8047 41.3855 19.5383 41.3855 19.2719ZM41.3855 18.0286C41.3855 17.8509 41.4743 17.7621 41.4743 17.7621C41.5631 17.7621 41.5631 17.8509 41.5631 18.0286C41.5631 18.2062 41.4743 18.295 41.4743 18.295C41.3855 18.295 41.3855 18.2062 41.3855 18.0286ZM41.8296 16.9628C41.8296 16.7852 41.9184 16.6964 42.0072 16.6964C42.096 16.6964 42.1848 16.7852 42.1848 16.9628C42.1848 17.1405 42.096 17.2293 42.0072 17.2293C41.8296 17.2293 41.8296 17.1405 41.8296 16.9628ZM41.5631 23.0907V22.8243L41.7408 23.0019C41.7408 23.0019 41.9184 23.0019 41.652 23.2683C41.3855 23.5348 41.7408 23.7124 41.7408 23.7124C41.3855 24.7781 40.8527 25.4886 40.8527 25.4886C40.8527 25.4886 40.4086 25.3998 40.4086 25.755C40.3198 26.1103 40.0534 26.0214 39.7869 26.0214C39.5205 26.0214 40.0534 25.5774 40.0534 25.5774C39.9646 25.2222 40.1422 24.8669 40.1422 24.8669C40.1422 24.0676 40.8527 24.0676 40.8527 24.0676L41.0303 23.7124C41.0303 23.7124 41.1191 23.7124 41.2079 23.446C41.2967 23.0907 41.4743 23.446 41.4743 23.446L41.5631 23.0907ZM40.675 21.2257C40.675 21.2257 40.8527 21.4033 40.8527 21.0481C40.7639 20.6929 41.1191 20.3376 41.2967 20.5152C41.3855 20.7817 41.3855 20.7817 41.3855 20.7817C41.3855 20.7817 41.1191 21.0481 41.2967 21.0481C41.4743 21.1369 41.2079 21.4921 41.2079 21.8474C41.2079 22.1138 40.9415 22.2914 40.675 21.9362C40.3198 21.5809 40.675 21.2257 40.675 21.2257ZM39.4317 20.6928C39.4317 20.6928 39.6981 20.604 39.7869 21.2257C39.8758 21.8474 40.3198 21.4921 40.3198 21.8474C40.3198 22.2026 40.0534 22.469 40.3198 22.5579C40.5862 22.6467 40.9415 22.2026 40.675 22.7355C40.4974 23.2683 39.9646 22.6467 39.9646 22.6467C39.9646 22.6467 40.1422 22.1138 39.9646 22.1138C39.7869 22.2026 39.4317 22.025 39.5205 21.5809C39.5205 21.2257 39.6981 21.0481 39.5205 20.9593C39.4317 20.9593 39.4317 20.6928 39.4317 20.6928ZM34.1031 23.89C34.1031 23.89 34.3695 23.1795 34.4583 23.3571C34.636 23.5348 34.7248 23.7124 34.5472 24.2452C34.3695 24.7781 34.636 24.6893 34.2807 25.0445C34.0143 25.3998 33.9255 25.2222 33.8367 25.1333C33.6591 25.1333 33.7479 24.7781 33.8367 24.5117C33.9255 24.2452 33.4814 24.3341 33.5702 24.0676C33.7479 23.89 34.1031 23.89 34.1031 23.89ZM20.0711 18.739C20.0711 18.739 19.9823 19.2719 20.0711 19.5383C20.1599 19.8048 20.1599 19.7159 20.4264 19.5383C20.6928 19.3607 20.5152 19.2719 20.604 19.1831C20.6928 19.0055 20.6928 18.9167 20.8704 19.1831C21.048 19.4495 21.048 19.4495 21.2257 19.2719C21.4033 19.0943 21.2257 19.4495 21.4921 19.5383C21.7585 19.6271 21.5809 20.0712 21.7585 19.9824C21.9361 19.8936 22.1138 19.9824 22.2914 20.3376C22.469 20.604 22.1138 20.9593 22.5578 20.9593C22.9131 20.9593 22.9131 21.2257 23.2683 21.2257C23.6235 21.2257 23.2683 21.5809 23.89 21.6698C24.4228 21.7586 23.8012 22.9131 23.8012 23.0019C23.8012 23.0907 24.0676 24.4229 23.7123 24.2452C23.3571 24.0676 23.3571 24.5117 23.3571 24.5117C23.6235 25.1333 23.2683 24.9557 23.3571 25.2222C23.4459 25.4886 23.1795 25.6662 23.1795 25.6662C23.1795 26.2879 22.8242 25.755 22.9131 25.9326C23.0019 26.1103 22.6466 26.0214 22.9131 26.1991C23.1795 26.3767 22.7354 26.4655 23.0907 26.5543C23.4459 26.6431 23.3571 26.9095 23.6235 27.0872C23.89 27.2648 25.1333 27.3536 23.9788 27.3536C22.8242 27.3536 22.2026 26.1103 22.2026 26.1103C21.4921 25.6662 21.9361 25.1333 21.6697 25.0445C21.4033 24.9557 21.6697 24.6005 21.4033 24.2452C21.2257 23.9788 21.4033 23.2683 21.048 23.0907C20.6928 22.8243 20.7816 22.5579 20.5152 22.2914C20.2488 22.025 20.2488 21.0481 20.1599 20.9593C20.0711 20.7817 20.4264 20.604 20.4264 20.16C20.4264 19.9824 20.4264 19.8936 20.4264 19.8936C20.4264 19.8936 20.3376 19.9824 20.1599 19.8936C19.8047 19.6271 20.0711 18.739 20.0711 18.739ZM23.0907 11.9895C23.0907 11.9895 23.0907 12.1671 23.0907 12.3447C23.0907 12.5223 22.8242 12.4335 22.7354 12.4335C22.7354 12.4335 22.8242 12.5223 22.8242 12.7C22.7354 12.9664 22.469 12.7 22.469 12.7L22.2026 13.0552C22.2026 13.0552 22.1138 13.5881 22.3802 13.144C22.6466 12.7 22.5578 13.0552 22.5578 13.0552C22.5578 13.0552 22.5578 13.3216 22.7354 13.3216C22.9131 13.3216 23.0019 13.3216 23.0019 13.4104C23.0019 13.4992 22.7354 13.8545 22.7354 13.8545C22.7354 13.8545 22.9131 13.5881 23.0019 13.8545C23.0907 14.1209 23.0019 14.3873 22.6466 14.3873C22.2914 14.3873 22.6466 13.9433 22.6466 13.9433C22.6466 13.9433 21.9361 14.2985 21.9361 14.565C21.9361 14.8314 22.3802 14.4762 22.3802 14.4762C22.3802 14.4762 22.3802 14.7426 22.1138 15.009C21.8473 15.2754 21.7585 15.2754 21.7585 15.009C21.7585 14.7426 21.4921 15.0978 21.4921 15.3643C21.4921 15.6307 21.1369 15.3643 21.1369 15.5419C21.1369 15.7195 20.8704 15.8083 20.8704 16.1635C20.8704 16.5188 20.3376 16.874 20.3376 16.874C20.3376 16.874 20.4264 17.5845 20.1599 17.5845C20.0711 17.5845 20.0711 17.5845 20.0711 17.5845C20.0711 17.5845 20.2488 17.4069 20.3376 16.7852C20.3376 15.8971 21.4921 14.9202 21.1369 15.0978C20.7816 15.3643 20.8704 15.0978 20.8704 15.0978C21.8473 12.9664 23.0907 11.9895 23.0907 11.9895ZM26.6431 9.68042L26.5543 9.94685C26.5543 9.94685 26.8207 9.76923 27.1759 9.68042C27.4424 9.5028 27.3535 9.76923 27.3535 9.76923C27.3535 9.76923 27.2647 9.94685 27.0871 10.0357C26.8207 10.1245 26.7319 10.2133 26.8207 10.3021C26.9095 10.3909 26.6431 10.6573 26.5543 10.8349C26.4654 10.9238 26.2878 10.8349 26.199 10.5685C26.0214 10.3021 26.0214 10.9238 26.3766 10.9238C26.6431 10.9238 25.9326 11.1902 25.755 11.5454C25.4885 11.8119 25.5774 11.8119 25.2221 11.6342C24.8669 11.4566 25.0445 11.723 24.7781 12.0783C24.5116 12.4335 24.334 12.1671 24.334 12.3447C24.334 12.6111 24.1564 12.8776 24.0676 12.7888C23.89 12.7 24.0676 12.5223 23.8012 12.7888C23.5347 13.0552 23.7123 12.6111 23.6235 12.3447C23.5347 12.0783 23.89 12.1671 23.89 12.1671C23.89 12.1671 23.89 11.9895 23.7123 11.9895C23.5347 11.9895 23.7123 11.723 23.7123 11.723C24.8669 10.3909 26.6431 9.68042 26.6431 9.68042ZM26.9095 30.1955C26.9095 30.1955 27.8864 30.1067 27.9752 30.3731C28.1528 30.6396 28.5081 30.3731 28.9521 30.4619C29.3074 30.5508 28.9521 30.1067 29.2186 30.1955C29.485 30.2843 29.485 29.9291 29.485 29.9291L29.929 30.2843C29.929 30.2843 29.3074 30.3731 29.3962 30.5508C29.485 30.7284 30.0178 30.6396 30.5507 30.8172C31.0836 30.9948 31.2612 30.6396 31.2612 30.6396C31.2612 30.6396 31.1724 30.2843 30.6395 30.5508C30.1067 30.8172 30.2843 30.1067 30.2843 30.1067C30.2843 30.1067 31.8829 29.6627 31.5276 30.1955C31.4388 30.3731 31.6164 30.4619 31.9717 30.4619C31.8829 30.3731 31.8829 30.1955 31.9717 30.0179C32.1493 29.2186 32.5045 29.1298 32.771 29.2186C33.0374 29.3074 32.5045 30.0179 32.771 30.0179C33.0374 30.0179 33.1262 30.1955 33.1262 30.1955L32.6821 30.4619C33.0374 30.3731 33.3926 30.3731 33.3926 30.3731L33.215 29.8403C33.215 29.8403 33.3926 29.3962 33.5702 29.041C33.7479 28.5969 33.8367 29.3074 33.6591 29.485C33.4814 29.6627 33.9255 30.0179 33.9255 30.0179C33.9255 30.0179 34.1919 29.7515 34.636 29.6627C35.1688 29.485 34.9024 29.9291 34.9024 29.9291C34.9024 29.9291 34.3695 30.0179 34.1031 30.2843C33.9255 30.1955 33.7479 30.5508 33.7479 30.5508C33.7479 30.5508 34.9024 30.3731 34.2807 30.3731C33.6591 30.3731 35.5241 29.6627 35.5241 29.6627C35.5241 29.6627 36.0569 29.3962 35.9681 29.6627C35.8793 29.9291 35.08 30.1067 35.08 30.1067C35.08 30.1067 35.4353 30.4619 35.7017 30.0179C35.9681 29.5738 37.5667 29.2186 37.5667 29.2186C37.5667 29.2186 34.9024 31.1724 31.7052 31.1724C28.5081 31.1724 26.9095 30.1955 26.9095 30.1955Z" fill="white"/>
<path d="M74.2452 23.9788L69.9823 34.2807H73.0018L73.5347 32.7709H77.0871L77.62 34.2807H80.6395L76.4654 23.9788H74.2452ZM74.4228 30.6395L75.4885 27.8864L76.4654 30.6395H74.4228Z" fill="white"/>
<path d="M93.428 27.2647C93.428 26.2878 93.0728 25.4885 92.2735 24.8669C91.563 24.2452 90.5861 23.9788 89.4316 23.9788H84.8135V34.2807H87.6554V30.4619H88.6323L90.6749 34.2807H93.9609L91.4742 29.929C92.8064 29.3962 93.428 28.5081 93.428 27.2647ZM90.2309 28.064C89.9645 28.2416 89.698 28.3304 89.3428 28.3304H87.7442V26.199H89.3428C89.698 26.199 89.9645 26.2878 90.2309 26.4654C90.4973 26.6431 90.5861 26.9095 90.5861 27.1759C90.5861 27.62 90.4973 27.7976 90.2309 28.064Z" fill="white"/>
<path d="M62.7887 27.7088L60.9237 23.9788H57.8153L61.2789 30.1066V34.2807H64.2096V30.1066L67.6732 23.9788H64.5649L62.7887 27.7088Z" fill="white"/>
<path d="M105.95 24.6892C105.24 24.1564 104.263 23.9788 103.197 23.9788H98.8455V34.2807H103.197C104.263 34.2807 105.24 34.0143 105.95 33.5702C106.75 33.0374 107.282 32.3269 107.46 31.35C107.549 30.9947 107.549 30.2843 107.549 29.1297C107.549 27.9752 107.549 27.2647 107.46 26.9095C107.194 25.9326 106.75 25.2221 105.95 24.6892ZM104.618 30.2843C104.618 30.8171 104.44 31.1724 104.263 31.4388C103.996 31.794 103.552 32.0605 102.931 32.0605H101.687V26.2878H102.931C103.552 26.2878 103.996 26.4654 104.263 26.9095C104.44 27.1759 104.618 27.9752 104.618 29.2185V30.2843Z" fill="white"/>
<path d="M126.821 28.5081L124.156 23.9788H121.314V34.2807H124.245V29.3074L126.199 32.7709H127.176L129.396 29.3074V34.2807H132.238V23.9788H129.396L126.821 28.5081Z" fill="white"/>
<path d="M115.897 23.9788H113.055V34.2807H115.897V23.9788Z" fill="white"/>
<path d="M131.972 5.59509H127.975H124.068V8.88106H127.975V20.0711H131.972V8.88106H135.879V5.59509H131.972Z" fill="white"/>
<path d="M90.231 11.3677L87.1226 5.59509H83.215L88.1883 15.0089V20.0711H92.1848V15.0089L97.2469 5.59509H93.2505L90.231 11.3677Z" fill="white"/>
<path d="M65.5418 11.0125H61.5453V5.59509H57.6377V20.0711H61.5453V14.3873H65.5418V20.0711H69.4494V5.59509H65.5418V11.0125Z" fill="white"/>
<path d="M125.755 20.0711L120.693 5.59509H116.785L111.723 20.0711H115.631L116.519 17.5844H120.87L121.758 20.0711H125.755ZM117.584 14.5649L118.739 11.2789L119.893 14.5649H117.584Z" fill="white"/>
<path d="M109.947 10.3021C109.947 8.88112 109.414 7.8154 108.348 6.9273C107.282 6.0392 105.95 5.68396 104.441 5.68396H98.0463V20.0712H102.043V14.7426H103.375L106.217 20.0712H110.835L107.283 14.0321C109.059 13.3216 109.947 12.0783 109.947 10.3021ZM105.417 11.3678C105.062 11.6342 104.707 11.8118 104.174 11.8118H101.954V8.88112H104.174C104.618 8.88112 105.062 9.05874 105.417 9.32517C105.773 9.5916 105.95 9.94684 105.95 10.3909C105.95 10.7461 105.773 11.1014 105.417 11.3678Z" fill="white"/>
<path d="M80.1954 5.59509H76.2878L71.2256 20.0711H75.1332L76.0213 17.5844H80.373L81.2611 20.0711H85.2576L80.1954 5.59509ZM77.087 14.5649L78.2416 11.2789L79.3961 14.5649H77.087Z" fill="white"/>
<path d="M71.1368 37.9219C70.604 37.5667 69.8935 37.389 68.8278 37.389C68.2949 37.389 67.762 37.389 67.318 37.5667V44.8491C67.6732 44.9379 68.1173 44.9379 68.5613 44.9379C69.7159 44.9379 70.604 44.6715 71.2256 44.1386C71.8473 43.6057 72.3802 42.7176 72.3802 41.0302C72.3802 39.4317 71.8473 38.4548 71.1368 37.9219ZM68.8278 44.1386C68.7389 44.1386 68.5613 44.1386 68.3837 44.1386V38.0995C68.5613 38.0995 68.7389 38.0995 68.9166 38.0995C70.4263 38.0995 71.2256 39.0764 71.2256 41.0302C71.2256 43.5169 70.0711 44.1386 68.8278 44.1386Z" fill="white"/>
<path d="M74.1564 44.8491H74.778L77.2647 37.389H76.6431L74.1564 44.8491Z" fill="white"/>
<path d="M65.3642 37.389H64.2985V44.7603H65.3642V37.389Z" fill="white"/>
<path d="M59.858 37.389L57.7266 44.8491H58.7923L59.414 42.6288H61.5454L62.1671 44.8491H63.2328L61.1013 37.4779H59.858V37.389ZM59.5916 41.9183L60.1244 40.0533C60.2132 39.5205 60.3909 38.8988 60.5685 38.3659C60.6573 38.8988 60.8349 39.5205 60.9237 40.0533L61.4566 41.9183H59.5916Z" fill="white"/>
<path d="M131.616 37.0338C130.817 36.6786 131.172 36.0569 131.172 36.0569C131.172 36.0569 130.728 36.8562 130.462 37.3002C130.195 37.7443 130.64 38.0107 130.64 38.0107C130.995 40.3198 131.172 42.0072 131.172 43.1617H128.33C128.33 42.9841 128.33 42.4512 128.153 40.8526C127.975 37.9219 127.798 35.9681 127.798 35.9681L126.909 37.2114C127.176 38.7212 127.442 40.675 127.62 43.2505C127.62 43.2505 126.021 43.3393 125.222 43.2505C124.423 43.1617 124.068 41.3855 124.068 40.9414C124.068 40.4974 123.268 40.8526 122.558 41.2967C121.847 41.7407 121.67 41.9184 121.492 42.54C121.314 43.2505 120.959 43.2505 120.959 43.2505H118.739C119.005 42.1848 118.739 41.0303 118.739 41.0303L118.028 42.0072L118.206 43.2505C117.229 43.4281 116.43 43.1617 116.43 43.1617L117.052 41.2967L115.986 42.3624V43.2505C114.387 43.6946 112.7 43.2505 112.7 43.2505C113.233 42.7176 113.233 41.2079 113.233 41.2079L112.256 42.1848C112.522 43.5169 111.634 43.2505 111.634 43.2505C111.634 43.2505 109.503 43.2505 108.881 43.2505C108.259 43.2505 108.259 41.4743 108.082 39.5205C107.993 37.5667 107.815 35.7017 107.815 35.7017L107.105 36.8562C107.46 38.9876 107.727 44.405 107.727 44.405H111.101C111.901 44.405 112.167 43.5169 112.167 43.7834C112.167 44.0498 112.878 44.405 112.878 44.405H114.476C115.453 44.405 115.986 43.961 115.986 43.961C115.986 43.961 116.874 44.5827 117.318 44.5827C117.762 44.5827 118.384 44.1386 118.384 44.1386L118.65 44.4938H120.515C121.137 44.4938 121.492 43.4281 121.492 43.4281L124.156 44.9379L124.6 44.4938H127.087C127.442 44.4938 127.886 43.6057 127.886 43.6057V44.405H131.439C131.439 44.405 131.528 44.405 131.794 43.5169C132.06 42.6288 131.528 38.5436 131.528 38.5436H131.794L132.238 37.6555C132.06 37.5667 132.416 37.4779 131.616 37.0338ZM121.936 42.4512C121.936 42.4512 123.002 41.2967 123.446 42.0072C123.89 42.7176 123.89 43.4281 123.89 43.4281C123.712 43.4281 123.002 43.0729 121.936 42.4512Z" fill="white"/>
<path d="M83.0374 39.5205L81.7941 38.8101L81.2612 39.6093L82.5046 40.4086L83.0374 39.5205Z" fill="white"/>
<path d="M84.6359 39.5205L83.4814 38.7212L83.0374 39.5205L84.1919 40.3198L84.6359 39.5205Z" fill="white"/>
<path d="M86.4122 41.119C86.4122 41.119 87.3003 42.6288 87.0339 43.1616H80.4619C79.485 43.1616 78.6857 42.0071 79.2186 40.9414C79.9291 39.4316 78.9522 40.7638 78.5969 41.5631C78.3305 42.2735 78.0641 44.3162 80.906 44.3162H87.0339C87.0339 44.3162 87.5667 43.6057 87.6555 42.6288C87.7443 41.6519 86.8563 39.9645 86.8563 39.9645L86.4122 41.119Z" fill="white"/>
<path d="M90.231 35.7905C90.231 35.7905 89.2541 37.1227 89.5205 38.4548C89.9646 41.9184 90.1422 44.7603 90.1422 44.7603C90.1422 44.7603 90.8527 44.1387 90.7639 42.096C90.4974 40.0534 90.231 35.7905 90.231 35.7905Z" fill="white"/>
<path d="M100.267 41.6519C100.178 41.2967 100.977 41.0302 102.132 40.7638C103.286 40.4974 103.997 41.5631 104.174 41.5631C104.352 41.6519 104.174 40.9414 103.108 39.9645C102.043 38.8988 99.6449 41.2079 99.4672 42.096C99.2896 42.9841 100.089 43.1617 100.089 43.1617H98.3127C97.1582 43.1617 97.1582 41.7407 97.1582 41.7407C96.8918 39.8757 96.6253 38.8988 96.6253 38.8988L96.0037 39.9645C96.0037 39.9645 96.6253 41.9183 96.5365 42.54C96.4477 43.1617 95.382 43.4281 93.8722 43.4281C92.4513 43.4281 93.0729 42.1848 92.8953 42.096C92.8065 42.0072 92.5401 43.2505 92.4513 43.961C92.3624 44.6715 95.2044 44.4938 95.9148 44.2274C96.3589 44.0498 96.8029 43.0729 96.8029 43.0729C96.8029 44.0498 97.8687 44.3162 97.8687 44.3162C100.089 44.2274 102.398 44.2274 104.796 44.0498L105.329 42.9841L102.487 43.0729C100.533 42.8064 100.444 42.0072 100.267 41.6519Z" fill="white"/>
</svg>
