<svg width="65" height="65" viewBox="0 0 105 105" fill="none" xmlns="http://www.w3.org/2000/svg">
    <path d="M19.9238 28.2137C20.3149 20.9115 23.3706 14.0064 28.5122 8.80659C33.6538 3.60673 40.524 0.473334 47.8213 0C41.6101 2.64586 36.4783 7.31755 33.2624 13.2536C30.0464 19.1896 28.9359 26.0399 30.112 32.6879C31.288 39.3359 34.6811 45.3895 39.7383 49.8621C44.7955 54.3346 51.2185 56.9623 57.9604 57.3168C59.1255 57.386 60.2936 57.386 61.4587 57.3168C56.7939 59.291 51.7041 60.0475 46.6668 59.5153C41.6295 58.983 36.8101 57.1796 32.6609 54.2742C28.5117 51.3687 25.1689 47.4566 22.9461 42.9051C20.7233 38.3536 19.6935 33.3118 19.9534 28.2532L19.9238 28.2137Z" fill="#295135"/>
    <path d="M31.4174 25.9905C31.5329 23.7359 31.9178 21.5031 32.5638 19.3398C32.2752 20.6401 32.0967 21.9625 32.0301 23.2927C31.7128 29.2462 33.5979 35.1082 37.3259 39.7608C41.0538 44.4135 46.3638 47.5312 52.2433 48.5195C58.1228 49.5077 64.1603 48.2973 69.2045 45.1192C74.2487 41.941 77.9467 37.0175 79.5932 31.2874C79.3612 36.0151 78.008 40.6198 75.6454 44.7213C73.2827 48.8229 69.9784 52.3036 66.0052 54.8762C61.7494 55.8794 57.3185 55.878 53.0634 54.872C48.8082 53.866 44.8458 51.8832 41.4898 49.0805C38.1338 46.2777 35.4764 42.7321 33.7282 38.7244C31.9799 34.7167 31.1888 30.357 31.4174 25.9905Z" fill="#295135"/>
    <path d="M44.4976 21.059C44.4976 20.9305 44.4976 20.8316 44.5866 20.8316C44.6755 20.8316 44.6755 20.9305 44.6755 21.059C44.6755 21.1874 44.6755 21.2863 44.5866 21.2863C44.4976 21.2863 44.4976 21.1874 44.4976 21.059ZM43.9739 21.059C43.9739 20.891 44.0628 20.7625 44.1715 20.7625C44.2802 20.7625 44.379 20.891 44.379 21.059C44.379 21.2269 44.2901 21.3554 44.1715 21.3554C44.0529 21.3554 43.9739 21.2269 43.9739 21.059ZM43.5193 21.1874C43.5193 21.1534 43.5328 21.1207 43.5569 21.0966C43.581 21.0725 43.6137 21.059 43.6478 21.059C43.6654 21.0576 43.6832 21.0599 43.7 21.0657C43.7167 21.0716 43.732 21.0808 43.745 21.0929C43.758 21.105 43.7684 21.1196 43.7755 21.1359C43.7825 21.1521 43.7862 21.1697 43.7861 21.1874C43.7862 21.2052 43.7825 21.2227 43.7755 21.239C43.7684 21.2552 43.758 21.2699 43.745 21.2819C43.732 21.294 43.7167 21.3033 43.7 21.3091C43.6832 21.315 43.6654 21.3173 43.6478 21.3159C43.6137 21.3159 43.581 21.3024 43.5569 21.2783C43.5328 21.2542 43.5193 21.2215 43.5193 21.1874ZM43.1833 20.4562C43.1833 20.3771 43.3612 20.3079 43.5786 20.3079C43.796 20.3079 43.9739 20.3771 43.9739 20.4562C43.9739 20.5352 43.796 20.6142 43.5786 20.6142C43.3612 20.6142 43.1833 20.5451 43.1833 20.4562ZM71.1104 26.9092C71.1104 26.7511 71.1104 26.6325 71.2092 26.6325C71.308 26.6325 71.2981 26.7511 71.2981 26.9092C71.2981 27.0673 71.2981 27.1859 71.2092 27.1859C71.1203 27.1859 71.1104 27.0673 71.1104 26.9092ZM71.4859 26.7017C71.4859 26.7017 71.6144 26.6325 71.7626 26.6325C71.9108 26.6325 72.0492 26.6325 72.0492 26.7017C72.0492 26.7709 71.9207 26.7808 71.7626 26.7808C71.6045 26.7808 71.4859 26.7412 71.4859 26.6819V26.7017ZM71.4859 25.8815C71.4859 25.6147 71.5353 25.3973 71.5946 25.3973C71.6539 25.3973 71.7132 25.6147 71.7132 25.8815C71.7132 26.1483 71.6638 26.3657 71.5946 26.3657C71.5254 26.3657 71.4464 26.1483 71.4464 25.8815H71.4859ZM71.5946 24.9624C71.5946 24.8933 71.7033 24.834 71.8417 24.834C71.98 24.834 72.0887 24.8933 72.0887 24.9624C72.0887 25.0316 71.98 25.1008 71.8417 25.1008C71.7033 25.1008 71.5551 25.0415 71.5551 24.9624H71.5946ZM71.9504 23.1935C72.0887 22.8773 72.2765 22.65 72.3654 22.6796C72.4544 22.7093 72.3654 23.0156 72.2567 23.3318C72.148 23.6481 71.9306 23.8853 71.8417 23.8457C71.7527 23.8062 71.7725 23.5196 71.9306 23.1935H71.9504ZM54.8146 15.6534C54.8146 15.4755 54.9036 15.3371 55.0024 15.3371C55.1012 15.3371 55.1902 15.4755 55.1902 15.6534C55.1902 15.8313 55.1111 15.9696 55.0024 15.9696C54.8937 15.9696 54.7751 15.8115 54.7751 15.6534H54.8146ZM58.5501 16.6416L58.8466 16.7503H58.5896L58.5501 16.6416ZM53.9549 15.7522C53.9549 15.7181 53.9684 15.6855 53.9925 15.6614C54.0166 15.6373 54.0493 15.6237 54.0834 15.6237C54.1174 15.6237 54.1501 15.6373 54.1742 15.6614C54.1983 15.6855 54.2118 15.7181 54.2118 15.7522C54.2118 15.7863 54.1983 15.819 54.1742 15.843C54.1501 15.8671 54.1174 15.8807 54.0834 15.8807C54.0678 15.8872 54.0511 15.8905 54.0342 15.8905C54.0173 15.8906 54.0006 15.8873 53.985 15.8809C53.9694 15.8745 53.9552 15.865 53.9433 15.8531C53.9313 15.8412 53.9218 15.8271 53.9154 15.8115L53.9549 15.7522ZM61.5741 15.2877L61.7717 15.6237C61.7717 15.6237 61.6136 15.4755 61.2776 15.8214C60.9416 16.1673 62.1077 16.7503 62.2658 16.3353C62.3189 15.9889 62.2376 15.6354 62.0385 15.347C62.0201 15.2211 61.9682 15.1023 61.8882 15.0033C61.8082 14.9042 61.7032 14.8284 61.5839 14.7837C61.1689 14.6256 61.663 14.26 61.8508 14.5268C62.0385 14.7936 62.2263 14.5268 62.2263 14.5268C62.2263 14.5268 62.3844 13.6671 61.7421 14.0821C61.0997 14.4972 61.2183 13.7066 60.991 14.4478C60.7637 15.1889 61.5345 15.2976 61.5345 15.2976L61.5741 15.2877ZM65.9222 9.87229C68.7283 11.475 70.8931 13.9995 72.0492 17.0171C71.976 17.1195 71.9366 17.2421 71.9366 17.368C71.9366 17.4938 71.976 17.6164 72.0492 17.7188C72.3061 18.0548 72.1381 18.618 71.9405 18.4303C71.7428 18.2425 71.8614 17.7188 71.8614 17.7188C71.8614 17.7188 71.5353 17.7188 71.6045 17.1555C71.6737 16.5922 71.4958 17.4717 71.3476 17.2741C71.2253 17.1015 71.1226 16.9159 71.0412 16.7207C71.0412 16.7207 70.7052 17.3828 71.0412 17.452C71.3772 17.5211 71.5057 17.6101 71.4464 17.9164C71.3871 18.2228 71.229 18.0251 71.565 18.5884C71.901 19.1517 71.8417 19.9917 71.3476 20.1498C70.8534 20.3079 71.644 20.466 71.229 20.6044C70.8139 20.7427 70.5076 20.4759 70.5076 20.7032C70.5076 20.9305 70.9918 20.9305 70.8436 21.3455C70.6953 21.7606 70.4088 21.2665 70.4088 21.2665C70.4088 21.2665 70.5076 20.634 70.2902 20.7032C70.0727 20.7724 70.132 21.6025 70.5471 21.8989C70.9622 22.1954 70.7447 23.1639 70.4088 23.1046C70.0728 23.0453 70.1913 23.3714 70.2111 23.4307C70.1051 23.0693 69.9269 22.7331 69.6873 22.4425C69.4304 22.2547 69.796 23.3418 69.6083 23.2627C69.4205 23.1836 69.7664 23.7469 69.7664 23.7469L69.8751 24.498C69.8751 24.498 70.2902 25.2194 70.0332 25.1403C69.8508 25.0026 69.7068 24.8203 69.6151 24.6109C69.5234 24.4015 69.487 24.1721 69.5095 23.9446C69.5885 23.5295 68.9363 23.4208 69.3118 22.9563C69.6874 22.4919 68.8375 22.0175 69.213 21.642C69.5885 21.2665 68.8375 21.4641 68.8375 21.7606C68.8375 22.057 68.7584 20.9305 68.4916 20.7032C68.2248 20.4759 68.373 20.0015 68.373 20.0015C68.373 20.0015 67.9085 20.5945 67.7109 20.3672C67.5133 20.1399 67.5923 20.97 67.2563 21.2665C66.9203 21.5629 66.8808 21.5827 66.9599 22.0175C66.9935 22.3698 66.9599 22.7253 66.861 23.065C66.861 23.065 67.197 22.7389 67.197 23.2528C67.197 23.7667 67.2958 24.409 67.0784 24.073C66.9152 23.7633 66.8018 23.4298 66.7425 23.0848C66.7425 23.0848 66.7424 23.6778 66.5843 23.6086C66.4262 23.5394 66.4756 22.7883 66.4756 22.7883C66.4756 22.7883 65.8827 22.7883 65.9222 21.7507C65.9618 20.7131 65.1613 21.1874 65.4677 20.2585C65.4677 20.2585 64.9044 20.2585 64.9044 19.6162C64.9044 18.9738 64.4597 19.3691 64.4201 19.1023C64.3806 18.8354 63.847 19.6458 63.2936 19.1023C62.7402 18.5587 62.9971 18.4797 62.5129 18.6576C62.0286 18.8355 61.9298 17.8472 61.7322 17.7682C61.5345 17.6891 61.4357 17.9461 61.4357 17.9461L61.7322 18.4797C61.7322 18.4797 61.8014 18.1239 61.8804 18.2425C61.9124 18.4057 61.9124 18.5735 61.8804 18.7366L62.2263 19.2604C62.2263 19.2604 62.7006 19.1912 62.7402 19.0035C62.7797 18.8157 63.007 19.0035 63.007 19.0035C63.007 19.0035 63.7284 19.5173 63.5011 19.7446C63.2738 19.9719 63.5011 20.4462 63.007 20.9008C62.7416 21.1605 62.4253 21.3624 62.0781 21.4938C62.0781 21.4938 61.5049 22.0274 61.327 21.9483C61.1425 21.8503 60.9843 21.7093 60.8656 21.5373C60.747 21.3654 60.6713 21.1674 60.6451 20.9601C60.6451 20.4759 59.8348 19.8237 59.8348 19.4185C59.8348 19.0133 59.4099 18.5192 59.4099 18.3018C59.4099 18.0844 59.1826 18.203 59.1134 18.0449C59.0442 17.8868 59.1925 18.5983 59.1925 18.5983L60.1807 20.7329C60.1807 20.7329 60.3585 21.6716 60.655 21.6716C60.9515 21.6716 61.08 21.8495 61.08 22.1164C61.08 22.3832 60.8527 22.5314 61.6729 22.2349C62.4931 21.9385 62.75 21.9978 62.4536 22.6698C62.1683 23.1639 61.9459 23.6917 61.7915 24.241C61.8606 24.4288 61.1985 24.4288 61.1195 24.8439C61.0404 25.2589 60.5957 26.1187 60.4771 26.0791C60.3586 26.0396 60.4771 26.7116 60.655 26.8993C60.8329 27.0871 61.1788 27.4923 61.0009 27.7986C60.823 28.105 61.0602 28.352 60.6945 28.6584C60.3289 28.9647 59.9435 28.9548 60.1411 29.3303C60.3388 29.7059 60.4376 29.8541 60.1411 29.9332C59.8447 30.0122 60.1411 30.2494 59.9929 30.4075C59.7325 30.6661 59.4552 30.9071 59.1628 31.1289C59.1628 31.1289 58.6588 31.2673 58.4612 31.1289C58.2635 30.9906 58.056 31.544 57.9078 31.208C57.7595 30.872 57.7497 30.5755 57.4828 30.3878C57.216 30.2 56.8504 30.111 56.8899 29.6663C56.9294 29.2216 55.9906 28.6781 55.9511 27.9567C55.9116 27.2353 56.2871 27.5516 56.0301 26.7511C55.7732 25.9506 55.7732 25.7629 55.4767 25.5158C55.1803 25.2688 54.7949 25.7826 55.1309 24.3201C55.4669 22.8575 54.7158 23.8062 54.7158 23.8062C54.7158 23.8062 54.5379 23.9742 54.2415 23.5295C53.945 23.0848 53.8956 23.233 53.5596 23.3516C53.2236 23.4702 53.026 23.9248 52.6208 23.5097C52.2156 23.0947 52.2255 23.8655 52.2255 23.8655C52.2255 23.8655 51.346 23.233 51.4646 23.0057C51.5831 22.7785 51.6523 22.6302 51.1286 22.3733C50.6048 22.1164 50.5851 21.9286 50.6839 21.6716C50.7827 21.4147 50.3874 21.306 50.6839 20.8514C50.9803 20.3969 50.5258 19.8632 50.9112 19.3395C51.2966 18.8157 51.1681 18.3512 51.761 18.1832C52.354 18.0152 51.761 18.0449 51.761 18.0449C51.761 18.0449 52.0279 16.8491 52.5417 16.8096C53.0556 16.7701 52.2453 16.4736 52.2453 16.4736C52.1671 16.3764 52.1166 16.2599 52.0992 16.1364C52.0818 16.0129 52.0981 15.887 52.1464 15.772C52.3243 15.4261 51.9686 14.8727 52.5022 14.8727C53.0358 14.8727 53.3224 15.2482 53.441 14.8727C53.5596 14.4972 53.5497 13.9734 53.0655 14.1513C52.5813 14.3292 53.5201 13.3805 53.8758 13.5485C53.6799 13.4269 53.4614 13.3462 53.2335 13.3113C53.1742 13.4101 53.1248 13.4595 53.1445 13.3805C53.1458 13.3701 53.149 13.36 53.1542 13.3509C53.1593 13.3417 53.1662 13.3337 53.1745 13.3273C53.1828 13.3208 53.1923 13.3161 53.2024 13.3134C53.2125 13.3106 53.2231 13.3099 53.2335 13.3113C53.3236 13.1709 53.406 13.0257 53.4805 12.8765L53.0655 12.7678C53.0655 12.7678 53.3422 13.1829 52.7394 13.4793C52.1366 13.7758 52.2848 12.8765 52.2848 12.8765C52.2848 12.8765 52.9568 12.8073 52.9568 12.6195C52.9568 12.4318 53.1149 12.333 53.3027 12.1353C53.4904 11.9377 54.0142 11.829 53.9351 12.2835C53.9025 12.5883 53.9834 12.8945 54.1624 13.1433C54.1624 13.1433 54.617 13.1433 54.7553 12.9555C54.8937 12.7678 55.2791 12.7382 55.2791 12.7382C55.2791 12.7382 55.121 12.3429 55.2791 12.244C55.3149 12.2185 55.3564 12.2023 55.4 12.1967C55.4436 12.1911 55.4879 12.1963 55.529 12.212C55.57 12.2276 55.6066 12.2531 55.6354 12.2863C55.6642 12.3195 55.6844 12.3593 55.6942 12.4021C55.7603 12.5583 55.8618 12.697 55.9906 12.8073L56.5144 12.5405L57.0678 12.4021C57.0678 12.4021 57.0085 11.9575 57.2259 11.8389C57.4433 11.7203 58.0659 11.2657 58.2141 11.6017C58.3623 11.9377 58.5205 10.7617 58.2141 10.8704C57.9078 10.9791 58.0758 11.2262 57.6607 11.3448C57.2457 11.4633 57.1765 11.1273 57.1765 11.1273L57.7002 10.6826C57.7002 10.6826 57.5421 10.3961 57.2852 10.6826C57.0282 10.9692 56.801 10.9 56.7614 11.1669C56.7219 11.4337 56.9986 11.6412 56.6231 11.7203C56.5133 11.745 56.4153 11.8065 56.3452 11.8946C56.2751 11.9826 56.2372 12.092 56.2377 12.2045C56.2377 12.2045 55.6843 12.2045 55.6052 11.908C55.5261 11.6116 55.704 11.3052 55.2692 11.6412C54.8344 11.9772 54.5281 11.9476 54.7059 11.6412C54.9602 11.362 55.2654 11.1339 55.6052 10.9692C55.7238 10.9692 56.0894 10.9001 56.0894 10.6036C56.109 10.4952 56.1508 10.3921 56.2121 10.3006C56.2734 10.2091 56.3529 10.1312 56.4456 10.0718C56.5384 10.0125 56.6424 9.97289 56.7511 9.95556C56.8599 9.93822 56.971 9.94353 57.0777 9.97112C57.6014 10.1095 58.135 9.55608 58.135 9.55608C58.0055 9.38331 57.8422 9.2387 57.6549 9.13109C57.4677 9.02349 57.2605 8.95514 57.046 8.93018C56.8315 8.90522 56.6142 8.92418 56.4073 8.98591C56.2003 9.04765 56.0081 9.15084 55.8424 9.28924C54.3106 10.1885 54.113 9.47702 54.6466 9.55608C55.1803 9.63514 55.4076 9.17067 55.704 8.99279C56.0005 8.81491 55.704 8.09351 55.0222 8.6568C54.4743 8.98895 53.8187 9.09523 53.1939 8.95325L53.3125 8.61726C54.7466 7.94052 56.3234 7.62176 57.9078 7.68833C59.7946 7.70774 61.6649 8.04173 63.4418 8.67655C64.6771 8.97302 63.0267 9.0916 62.7994 9.01254C62.5722 8.93348 61.0108 8.59751 61.0108 8.59751C61.0108 8.59751 60.9515 9.15091 60.2894 8.9335C59.5715 8.74694 58.8364 8.63436 58.0955 8.59751C59.143 8.73586 58.5699 9.01254 58.3228 9.07183L59.0343 9.01254C59.0343 9.01254 58.3129 9.87231 58.6193 9.64502C58.9256 9.41773 59.2814 8.97303 59.6964 9.30903C60.1115 9.64502 59.4691 9.38808 59.1727 9.64502C58.8762 9.90196 58.9157 9.80312 59.1727 10.0304C59.3616 10.1628 59.5845 10.2383 59.815 10.2478H60.1115L60.4475 10.0897L61.0108 10.2874L61.4456 10.1688L61.7519 9.95136C61.7519 9.95136 60.8527 9.95136 60.9317 9.60548C61.0108 9.2596 61.7519 9.68453 61.8211 9.34853C61.8903 9.01254 63.2046 9.88217 63.9161 9.34853C64.6277 8.81489 63.9161 9.56594 63.9161 9.56594L62.9279 9.68452C62.7006 9.68452 62.1472 9.49677 62.1868 9.75371C62.2509 9.96331 62.3664 10.1535 62.5227 10.3071C62.5227 10.3071 62.8884 9.83277 63.3034 10.1292C63.7185 10.4257 63.4418 9.51654 64.1237 9.97112C64.8055 10.4257 64.2126 9.2596 64.6573 9.41772C65.102 9.57583 64.5782 9.95136 65.1316 10.1688C65.6851 10.3862 65.8827 9.88218 65.8827 9.88218L65.9222 9.87229ZM58.3722 9.22006H58.2833H58.3722ZM52.9766 16.7997C53.2878 16.5789 53.6186 16.3871 53.9648 16.2266C54.2612 16.1277 54.8542 16.2957 55.0419 16.2266C55.2297 16.1574 55.4273 16.3451 55.4273 16.6515C55.4273 16.9578 54.7059 17.2839 55.0815 17.2839C55.457 17.2839 55.4965 16.9677 55.8028 17.1258C56.1092 17.2839 56.1981 17.7682 56.5045 17.5804C56.8108 17.3927 57.0777 16.9183 57.2951 17.0665C57.5125 17.2148 57.7595 17.5014 57.9572 17.5014C58.1548 17.5014 58.5205 17.6496 58.639 17.5014C58.7576 17.3531 59.7063 18.0054 59.4296 17.363C59.3446 17.2147 59.2903 17.0507 59.2699 16.8809C59.2495 16.7112 59.2635 16.5391 59.311 16.3748L58.896 16.6021C58.896 16.6021 58.4809 16.3748 58.3327 16.4143C58.1845 16.4538 58.0066 16.7404 57.9374 16.6021C57.8939 16.4909 57.8939 16.3674 57.9374 16.2562L57.7793 16.1178L57.8583 15.7028L57.9374 15.4063L58.2932 15.2976C58.2932 15.2976 59.1035 14.9419 59.2814 15.1395C59.8743 15.7127 60.2696 15.2581 60.2696 15.2581C60.2696 15.2581 59.7063 14.9221 59.9237 14.843C60.1411 14.764 60.072 14.3391 59.8546 14.3984C59.6371 14.4576 59.5284 14.6652 59.3703 14.5861C59.1942 14.551 59.0128 14.551 58.8367 14.5861L58.6193 14.3193L58.3129 14.6652L58.056 15.1L57.9177 15.2976L57.7595 15.1L57.5718 15.4063H57.8386L57.5718 15.6336L57.3049 15.7028L57.4927 16.0388C57.4927 16.0388 57.2259 16.276 57.3049 16.4934C57.384 16.7108 57.1567 16.6811 57.1567 16.6811C57.1567 16.6811 56.6428 16.276 56.8998 15.94C57.1567 15.604 56.9591 15.7127 56.8207 15.5941C56.6641 15.451 56.5156 15.2993 56.376 15.1395L55.704 14.6652L55.8424 15.0407L56.297 15.4063L56.5243 15.5546C56.5243 15.5546 56.6626 15.9004 56.5243 15.8609C56.3859 15.8214 56.3365 15.7621 56.297 15.9993C56.2868 16.0675 56.2621 16.1328 56.2246 16.1908C56.1871 16.2487 56.1377 16.298 56.0796 16.3353C56.0796 16.3353 56.0796 16.7404 55.9214 16.6416C55.7633 16.5428 55.7633 16.276 55.625 16.1574C55.4866 16.0388 55.5558 15.7917 55.7831 15.94C56.0104 16.0882 56.1586 15.94 56.1191 15.7423C56.0796 15.5447 55.4768 15.7423 55.4471 15.4854C55.4175 15.2285 55.2593 15.0012 55.1012 14.9616C54.9431 14.9221 54.7257 15.1395 54.7257 15.1395L54.1723 15.2976C54.1723 15.2976 54.2711 15.2976 54.0142 15.5546C53.7572 15.8115 53.6485 15.8313 53.6485 15.9795C53.6485 16.1277 53.5102 16.1277 53.3521 16.2364C53.2308 16.3472 53.1391 16.4865 53.0852 16.6416L52.9766 16.7997ZM59.2221 25.2292C59.2221 25.4466 59.2814 25.6245 59.3506 25.6245C59.4197 25.6245 59.4889 25.4466 59.4889 25.2292C59.4889 25.0118 59.4296 24.834 59.3506 24.834C59.2715 24.834 59.2221 25.0118 59.2221 25.2292ZM71.5551 22.1658C71.5551 21.7803 71.6539 21.474 71.7626 21.474C71.8713 21.474 71.9701 21.7803 71.9701 22.1658C71.9701 22.5512 71.8812 22.8575 71.7626 22.8575C71.644 22.8575 71.5551 22.5413 71.5551 22.1658ZM71.5551 20.5352C71.5551 20.3474 71.6341 20.1992 71.7231 20.1992C71.812 20.1992 71.8911 20.3474 71.8911 20.5352C71.8911 20.723 71.8219 20.8712 71.7231 20.8712C71.6243 20.8712 71.5946 20.7526 71.5946 20.5352H71.5551ZM72.1184 19.043C72.1184 18.8354 72.2172 18.6675 72.3457 18.6675C72.4741 18.6675 72.5631 18.8354 72.5631 19.043C72.5631 19.2505 72.4642 19.4185 72.3457 19.4185C72.2271 19.4185 72.1579 19.2505 72.1579 19.043H72.1184ZM71.8219 27.1859V26.8894L72.0788 27.1167C72.0788 27.1167 72.3457 27.1167 72.0097 27.5219C71.6737 27.9271 72.1579 28.0852 72.1579 28.0852C71.8604 28.929 71.4587 29.7324 70.9622 30.4767C70.9622 30.4767 70.3989 30.4075 70.3198 30.8522C70.2407 31.2969 69.796 31.2673 69.4601 31.2673C69.1241 31.2673 69.796 30.6645 69.796 30.6645C69.7309 30.3555 69.7876 30.0334 69.9542 29.7652C69.9373 29.6258 69.9504 29.4844 69.9924 29.3505C70.0345 29.2166 70.1046 29.0931 70.1981 28.9884C70.2916 28.8837 70.4063 28.8001 70.5347 28.7432C70.663 28.6863 70.802 28.6574 70.9424 28.6584L71.2092 28.1346C71.2092 28.1346 71.3179 28.1346 71.4661 27.7195C71.6144 27.3045 71.7626 27.7195 71.7626 27.7195L71.8219 27.1859ZM70.6657 24.7055C70.6657 24.7055 70.9226 24.9229 70.8534 24.4387C70.7843 23.9544 71.2586 23.4504 71.4068 23.7667C71.5551 24.0829 71.5254 24.1422 71.5254 24.1422C71.5254 24.1422 71.1894 24.4387 71.3772 24.5573C71.565 24.6758 71.2191 25.1897 71.2191 25.6048C71.2191 26.0198 70.9226 26.1582 70.5471 25.674C70.4483 25.5248 70.406 25.3454 70.4277 25.1678C70.4494 24.9903 70.5338 24.8263 70.6657 24.7055ZM69.0154 24.0335C69.0154 24.0335 69.3513 23.8853 69.4996 24.745C69.6478 25.6048 70.2111 25.1107 70.2111 25.5652C70.2111 26.0198 69.8751 26.425 70.2111 26.4942C70.5471 26.5633 71.0017 25.9704 70.7349 26.7215C70.468 27.4725 69.8356 26.6127 69.8356 26.6127C69.8356 26.6127 70.1024 25.8617 69.8356 25.9408C69.7454 25.9519 69.6539 25.9415 69.5686 25.9104C69.4833 25.8793 69.4066 25.8283 69.3448 25.7617C69.283 25.6951 69.238 25.6148 69.2133 25.5274C69.1887 25.44 69.1852 25.3479 69.2031 25.2589C69.2031 24.745 69.3909 24.5573 69.2031 24.4387C69.1389 24.3984 69.0873 24.341 69.0541 24.2728C69.0209 24.2047 69.0075 24.1286 69.0154 24.0533V24.0335ZM61.8409 28.3323C61.8409 28.3323 62.1373 27.433 62.3251 27.6207C62.5129 27.8085 62.7402 28.0654 62.4733 28.8165C62.2065 29.5675 62.5524 29.3798 62.1769 29.9035C61.8014 30.4273 61.7322 30.0913 61.5444 30.0518C61.3567 30.0122 61.4258 29.5972 61.5444 29.2612C61.663 28.9252 61.0602 29.0734 61.2084 28.7078C61.2687 28.5942 61.3604 28.5002 61.4725 28.4372C61.5846 28.3741 61.7125 28.3446 61.8409 28.352V28.3323ZM43.1833 21.4147C43.1185 21.7841 43.1185 22.162 43.1833 22.5314C43.3019 22.9069 43.3019 22.7192 43.6379 22.5314C43.9739 22.3436 43.707 22.225 43.8256 22.0373C43.9442 21.8495 43.9739 21.6716 44.1616 22.0373C44.3494 22.4029 44.379 22.4128 44.6459 22.1855C44.9127 21.9582 44.6459 22.4128 45.0214 22.561C45.3969 22.7093 45.0906 23.233 45.3574 23.1639C45.6242 23.0947 45.8811 23.1639 46.0985 23.6086C46.3159 24.0533 45.8811 24.4288 46.4049 24.4288C46.9286 24.4288 46.8496 24.8439 47.2943 24.8439C47.739 24.8439 47.2943 25.3281 48.0849 25.4763C48.8754 25.6245 47.9761 27.0871 47.9761 27.2353C47.9761 27.3836 48.3813 29.1426 47.8971 28.9153C47.8453 28.8803 47.7847 28.8604 47.7222 28.8579C47.6597 28.8554 47.5978 28.8704 47.5433 28.9012C47.4889 28.932 47.4441 28.9774 47.4141 29.0323C47.3841 29.0871 47.37 29.1493 47.3733 29.2118C47.7489 30.0023 47.2646 29.8146 47.3733 30.2C47.482 30.5854 47.1065 30.8325 47.1065 30.8325C47.1065 31.6626 46.6618 30.951 46.7705 31.1685C46.8792 31.3859 46.395 31.287 46.7705 31.4748C47.146 31.6626 46.5531 31.8503 46.9978 31.959C47.4425 32.0677 47.3733 32.4432 47.7093 32.6705C48.0453 32.8978 49.6858 33.0461 48.154 33.0065C47.6492 32.9403 47.1692 32.7481 46.7581 32.4476C46.3471 32.1471 46.0183 31.748 45.8021 31.287C44.8138 30.7238 45.4265 30.0122 45.0905 29.864C44.7546 29.7158 45.0905 29.2315 44.7941 28.8165C44.4976 28.4014 44.7941 27.5417 44.3099 27.2452C43.8256 26.9488 44.0134 26.5337 43.5983 26.1582C43.1833 25.7826 43.2228 24.5572 43.1141 24.33C43.0054 24.1027 43.4501 23.8853 43.4501 23.2429C43.4577 23.1343 43.4577 23.0254 43.4501 22.9168C43.4501 22.9168 43.3711 23.0255 43.1536 22.9168C42.7386 22.5907 43.1833 21.4345 43.1833 21.4345V21.4147ZM47.1856 12.4021C47.1971 12.5501 47.1971 12.6988 47.1856 12.8468C47.1856 13.0643 46.7903 12.9753 46.7409 12.9654C46.6915 12.9555 46.9188 13.0346 46.8496 13.3014C46.7804 13.5682 46.4049 13.3014 46.4049 13.3014L46.0689 13.7857C46.0689 13.7857 45.9898 14.5367 46.2863 13.8944C46.5828 13.252 46.5531 13.7857 46.5531 13.7857C46.5531 13.7857 46.5531 14.0821 46.7409 14.1612C46.9286 14.2402 47.1164 14.1612 47.146 14.2699C47.1757 14.3786 46.7705 14.9023 46.7705 14.9023C46.7705 14.9023 47.0373 14.6059 47.1164 14.9023C47.1955 15.1988 47.1164 15.5743 46.5926 15.5743C46.0689 15.5743 46.5926 14.9419 46.5926 14.9419C46.5926 14.9419 45.6538 15.3965 45.6044 15.7621C45.555 16.1277 46.2468 15.6929 46.2468 15.6929C46.2449 15.9704 46.135 16.2363 45.9404 16.4341C45.6044 16.8096 45.4167 16.7404 45.4167 16.4341C45.4167 16.1277 45.1202 16.5527 45.0807 16.9578C45.0411 17.363 44.636 16.9578 44.636 17.2247C44.636 17.4915 44.3395 17.6397 44.3395 18.0844C44.3395 18.5291 43.6675 19.0133 43.6675 19.0133C43.6675 19.0133 43.8158 20.0015 43.4007 20.0015H43.2426C43.4664 19.6888 43.5746 19.3081 43.5489 18.9244C43.5489 17.7682 45.1202 16.3847 44.6755 16.7207C44.2308 17.0567 44.3 16.7207 44.3 16.7207C44.9291 15.0806 45.9304 13.6091 47.2251 12.4219L47.1856 12.4021ZM51.929 9.29913L51.8203 9.59559C51.8203 9.59559 52.1959 9.37818 52.601 9.19041C53.0062 9.00265 52.8678 9.2596 52.8678 9.2596C52.7839 9.43421 52.6349 9.56901 52.4528 9.63513C52.1168 9.78336 51.929 9.90195 52.0773 10.0107C52.2255 10.1194 51.8599 10.5344 51.7116 10.6826C51.5634 10.8309 51.4053 10.6826 51.1879 10.3862C50.9705 10.0897 50.9606 10.8704 51.3756 10.8704C51.7907 10.8704 50.8123 11.2854 50.5159 11.6906C50.2194 12.0958 50.2886 12.0266 49.834 11.8092C49.3794 11.5918 49.5771 11.8784 49.2015 12.3626C48.826 12.8469 48.6086 12.4812 48.6086 12.7777C48.6086 13.0741 48.4208 13.4497 48.1936 13.3706C47.9663 13.2915 48.1936 12.9654 47.8971 13.3706C47.6006 13.7758 47.7489 13.1532 47.6303 12.7777C47.5117 12.4021 47.9663 12.5504 47.9663 12.5504C47.9685 12.5225 47.9642 12.4944 47.9536 12.4685C47.943 12.4426 47.9264 12.4196 47.9052 12.4013C47.8841 12.383 47.8589 12.3699 47.8317 12.3632C47.8045 12.3565 47.7761 12.3563 47.7489 12.3626C47.5216 12.3626 47.7489 12.0266 47.7489 12.0266C48.9844 10.9011 50.3967 9.98626 51.929 9.31889V9.29913ZM52.265 36.663C52.265 36.663 53.5398 36.5147 53.7276 36.9298C53.9154 37.3448 54.4786 36.9298 55.0024 37.078C55.5261 37.2262 55.0024 36.5543 55.4076 36.663C55.8127 36.7717 55.7831 36.2874 55.7831 36.2874L56.3859 36.742C56.3859 36.742 55.5262 36.8507 55.6744 37.078C55.8226 37.3053 56.4946 37.2262 57.2061 37.414C57.9177 37.6017 58.1054 37.2262 58.1054 37.2262C58.1054 37.2262 57.9868 36.742 57.2753 37.078C56.5638 37.414 56.7911 36.4752 56.7911 36.4752C56.7911 36.4752 58.9652 35.8427 58.5106 36.5938C58.3426 36.8705 58.6489 36.9594 59.0936 36.9594C59.0266 36.7675 59.0266 36.5584 59.0936 36.3665C59.3506 35.319 59.7656 35.1708 60.1807 35.2498C60.5957 35.3289 59.8051 36.238 60.1807 36.2874C60.3647 36.3003 60.5374 36.3813 60.6649 36.5147L60.1016 36.8507C60.5858 36.7717 61.0009 36.6827 61.0009 36.6827L60.8131 35.9317C60.9456 35.552 61.0974 35.1793 61.2677 34.815C61.5247 34.2517 61.5642 35.23 61.3764 35.4474C61.1887 35.6648 61.7519 36.1194 61.7519 36.1194C62.0278 35.8585 62.3694 35.6775 62.7402 35.5957C63.4121 35.4079 63.0366 35.902 63.0366 35.902C62.6721 35.9789 62.3325 36.1453 62.0484 36.3863C61.8513 36.6226 61.6883 36.8853 61.5642 37.1669C61.5642 37.1669 63.1354 36.91 62.2757 36.91C61.4159 36.91 63.9161 35.9218 63.9161 35.9218C63.9161 35.9218 64.5881 35.5166 64.519 35.9218C64.4498 36.327 63.3627 36.5542 63.3627 36.5542C63.4149 36.619 63.4828 36.6692 63.56 36.7C63.6372 36.7309 63.721 36.7414 63.8034 36.7305C63.8858 36.7195 63.964 36.6876 64.0305 36.6377C64.097 36.5878 64.1495 36.5216 64.183 36.4455C64.5585 35.8427 66.6535 35.3585 66.6535 35.3585C64.3283 36.9378 61.606 37.8315 58.7972 37.9378C54.3996 37.9575 52.265 36.6827 52.265 36.6827V36.663Z" fill="#295135"/>
</svg>
