<svg width="25" height="20" viewBox="0 0 20 15" fill="none" xmlns="http://www.w3.org/2000/svg">
    <path d="M15.4 11.8H18.1C18.5971 11.8 19 11.3971 19 10.9V7.86799C19 7.49692 18.7723 7.16392 18.4266 7.02928L14.5 5.5L11.8 1H4.6L2.8 5.5H1.9C1.40295 5.5 1 5.90293 1 6.4V10.9C1 11.3971 1.40295 11.8 1.9 11.8H4.6M15.4 11.8C15.4 12.7941 14.5941 13.6 13.6 13.6C12.6059 13.6 11.8 12.7941 11.8 11.8M15.4 11.8C15.4 10.8059 14.5941 10 13.6 10C12.6059 10 11.8 10.8059 11.8 11.8M4.6 11.8C4.6 12.7941 5.40589 13.6 6.4 13.6C7.39411 13.6 8.2 12.7941 8.2 11.8M4.6 11.8C4.6 10.8059 5.40589 10 6.4 10C7.39411 10 8.2 10.8059 8.2 11.8M11.8 11.8H8.2"
          stroke="currentColor" stroke-width="1.5" stroke-linecap="round" stroke-linejoin="round"/>
</svg>
