<svg width="24" height="24" viewBox="0 0 18 18" fill="none" xmlns="http://www.w3.org/2000/svg">
    <path d="M1 7.22222H17M7.22222 1V17M1 2.77778C1 2.30628 1.1873 1.8541 1.5207 1.5207C1.8541 1.1873 2.30628 1 2.77778 1H15.2222C15.6937 1 16.1459 1.1873 16.4793 1.5207C16.8127 1.8541 17 2.30628 17 2.77778V15.2222C17 15.6937 16.8127 16.1459 16.4793 16.4793C16.1459 16.8127 15.6937 17 15.2222 17H2.77778C2.30628 17 1.8541 16.8127 1.5207 16.4793C1.1873 16.1459 1 15.6937 1 15.2222V2.77778Z"
          stroke="currentColor" stroke-width="1.5" stroke-linecap="round" stroke-linejoin="round"/>
</svg>
