<svg width="27" height="26" viewBox="0 0 27 26" fill="none" xmlns="http://www.w3.org/2000/svg">
<path d="M10.1864 18V16.8864L13.6317 13.3168C13.9996 12.929 14.3029 12.5893 14.5415 12.2976C14.7835 12.0026 14.9641 11.7225 15.0835 11.4574C15.2028 11.1922 15.2624 10.9105 15.2624 10.6122C15.2624 10.2741 15.1829 9.98248 15.0238 9.73722C14.8647 9.48864 14.6476 9.29806 14.3725 9.16548C14.0974 9.02959 13.7875 8.96165 13.4428 8.96165C13.0782 8.96165 12.7601 9.03622 12.4883 9.18537C12.2165 9.33452 12.0077 9.54498 11.8619 9.81676C11.716 10.0885 11.6431 10.4067 11.6431 10.7713H10.1765C10.1765 10.1515 10.319 9.60961 10.604 9.1456C10.8891 8.68158 11.2802 8.32197 11.7773 8.06676C12.2745 7.80824 12.8396 7.67898 13.4727 7.67898C14.1123 7.67898 14.6758 7.80658 15.163 8.06179C15.6535 8.31368 16.0363 8.65838 16.3114 9.09588C16.5865 9.53007 16.7241 10.0206 16.7241 10.5675C16.7241 10.9453 16.6528 11.3149 16.5103 11.6761C16.3711 12.0374 16.1275 12.4401 15.7795 12.8842C15.4315 13.325 14.9476 13.8603 14.3278 14.4901L12.3043 16.608V16.6825H16.8881V18H10.1864Z" fill="#717982"/>
</svg>
