<svg width="24" height="25" viewBox="0 0 24 25" fill="none" xmlns="http://www.w3.org/2000/svg">
<g clip-path="url(#clip0_155_2441)">
<path d="M3 12.5C3 13.6819 3.23279 14.8522 3.68508 15.9442C4.13738 17.0361 4.80031 18.0282 5.63604 18.864C6.47177 19.6997 7.46392 20.3626 8.55585 20.8149C9.64778 21.2672 10.8181 21.5 12 21.5C13.1819 21.5 14.3522 21.2672 15.4442 20.8149C16.5361 20.3626 17.5282 19.6997 18.364 18.864C19.1997 18.0282 19.8626 17.0361 20.3149 15.9442C20.7672 14.8522 21 13.6819 21 12.5C21 11.3181 20.7672 10.1478 20.3149 9.05585C19.8626 7.96392 19.1997 6.97177 18.364 6.13604C17.5282 5.30031 16.5361 4.63738 15.4442 4.18508C14.3522 3.73279 13.1819 3.5 12 3.5C10.8181 3.5 9.64778 3.73279 8.55585 4.18508C7.46392 4.63738 6.47177 5.30031 5.63604 6.13604C4.80031 6.97177 4.13738 7.96392 3.68508 9.05585C3.23279 10.1478 3 11.3181 3 12.5Z" stroke="#717982" stroke-width="1.5" stroke-linecap="round" stroke-linejoin="round"/>
<path d="M9 10.5C9 11.2956 9.31607 12.0587 9.87868 12.6213C10.4413 13.1839 11.2044 13.5 12 13.5C12.7956 13.5 13.5587 13.1839 14.1213 12.6213C14.6839 12.0587 15 11.2956 15 10.5C15 9.70435 14.6839 8.94129 14.1213 8.37868C13.5587 7.81607 12.7956 7.5 12 7.5C11.2044 7.5 10.4413 7.81607 9.87868 8.37868C9.31607 8.94129 9 9.70435 9 10.5Z" stroke="#717982" stroke-width="1.5" stroke-linecap="round" stroke-linejoin="round"/>
<path d="M6.16803 19.349C6.41554 18.5252 6.922 17.8032 7.61228 17.29C8.30255 16.7768 9.13988 16.4997 10 16.5H14C14.8613 16.4997 15.6996 16.7774 16.3904 17.2918C17.0812 17.8062 17.5875 18.5298 17.834 19.355" stroke="#717982" stroke-width="1.5" stroke-linecap="round" stroke-linejoin="round"/>
</g>
<defs>
<clipPath id="clip0_155_2441">
<rect width="24" height="24" fill="white" transform="translate(0 0.5)"/>
</clipPath>
</defs>
</svg>
