<svg width="40" height="40" viewBox="0 0 40 40" fill="none" xmlns="http://www.w3.org/2000/svg">
<rect width="40" height="40" rx="20" fill="#DEE0E2"/>
<path d="M16.4048 25.5V24.1676L19.9396 20.7024C20.2777 20.361 20.5594 20.0578 20.7848 19.7926C21.0102 19.5275 21.1792 19.2706 21.2919 19.022C21.4046 18.7734 21.4609 18.5083 21.4609 18.2266C21.4609 17.9051 21.388 17.63 21.2422 17.4013C21.0964 17.1693 20.8958 16.9903 20.6406 16.8643C20.3854 16.7384 20.0954 16.6754 19.7706 16.6754C19.4358 16.6754 19.1425 16.745 18.8906 16.8842C18.6387 17.0201 18.4432 17.214 18.304 17.4659C18.1681 17.7178 18.1001 18.0178 18.1001 18.3658H16.3452C16.3452 17.7195 16.4927 17.1577 16.7876 16.6804C17.0826 16.2031 17.4886 15.8336 18.0057 15.5717C18.526 15.3099 19.1226 15.179 19.7955 15.179C20.4782 15.179 21.0781 15.3066 21.5952 15.5618C22.1122 15.817 22.5133 16.1667 22.7983 16.6108C23.0866 17.0549 23.2308 17.562 23.2308 18.1321C23.2308 18.5133 23.1579 18.8878 23.0121 19.2557C22.8662 19.6236 22.6094 20.0312 22.2415 20.4787C21.8769 20.9261 21.3648 21.468 20.7053 22.1044L18.9503 23.8892V23.9588H23.3849V25.5H16.4048Z" fill="#717982"/>
</svg>
