<svg width="40" height="40" viewBox="0 0 40 40" fill="none" xmlns="http://www.w3.org/2000/svg">
<rect width="40" height="40" rx="20" fill="#1E724A"/>
<g clip-path="url(#clip0_242_1621)">
<path d="M12 20C12 21.0506 12.2069 22.0909 12.609 23.0615C13.011 24.0321 13.6003 24.914 14.3431 25.6569C15.086 26.3997 15.9679 26.989 16.9385 27.391C17.9091 27.7931 18.9494 28 20 28C21.0506 28 22.0909 27.7931 23.0615 27.391C24.0321 26.989 24.914 26.3997 25.6569 25.6569C26.3997 24.914 26.989 24.0321 27.391 23.0615C27.7931 22.0909 28 21.0506 28 20C28 18.9494 27.7931 17.9091 27.391 16.9385C26.989 15.9679 26.3997 15.086 25.6569 14.3431C24.914 13.6003 24.0321 13.011 23.0615 12.609C22.0909 12.2069 21.0506 12 20 12C18.9494 12 17.9091 12.2069 16.9385 12.609C15.9679 13.011 15.086 13.6003 14.3431 14.3431C13.6003 15.086 13.011 15.9679 12.609 16.9385C12.2069 17.9091 12 18.9494 12 20Z" stroke="white" stroke-width="1.5" stroke-linecap="round" stroke-linejoin="round"/>
<path d="M17 20L19 22L23 18" stroke="white" stroke-width="1.5" stroke-linecap="round" stroke-linejoin="round"/>
</g>
<defs>
<clipPath id="clip0_242_1621">
<rect width="24" height="24" fill="white" transform="translate(8 8)"/>
</clipPath>
</defs>
</svg>
