<svg width="40" height="40" viewBox="0 0 40 40" fill="none" xmlns="http://www.w3.org/2000/svg">
<rect width="40" height="40" rx="20" fill="#DEE0E2"/>
<path d="M19.5589 25.6392C18.843 25.6392 18.2067 25.5166 17.6499 25.2713C17.0964 25.026 16.6589 24.6847 16.3374 24.2472C16.0159 23.8097 15.8452 23.3042 15.8253 22.7308H17.6946C17.7112 23.0059 17.8023 23.2462 17.968 23.4517C18.1338 23.6539 18.3542 23.8113 18.6293 23.924C18.9044 24.0367 19.2126 24.093 19.554 24.093C19.9186 24.093 20.2417 24.0301 20.5234 23.9041C20.8052 23.7749 21.0256 23.5959 21.1847 23.3672C21.3438 23.1385 21.4216 22.875 21.4183 22.5767C21.4216 22.2685 21.3421 21.9967 21.1797 21.7614C21.0173 21.526 20.782 21.3421 20.4737 21.2095C20.1688 21.0769 19.8009 21.0107 19.37 21.0107H18.4702V19.5888H19.37C19.7247 19.5888 20.0346 19.5275 20.2997 19.4048C20.5682 19.2822 20.7786 19.1098 20.9311 18.8878C21.0836 18.6624 21.1581 18.4022 21.1548 18.1072C21.1581 17.8189 21.0935 17.5687 20.9609 17.3565C20.8317 17.1411 20.6477 16.9737 20.4091 16.8544C20.1738 16.7351 19.897 16.6754 19.5788 16.6754C19.2673 16.6754 18.9789 16.7318 18.7138 16.8445C18.4486 16.9571 18.2348 17.1179 18.0724 17.3267C17.91 17.5322 17.8239 17.7775 17.8139 18.0625H16.0391C16.0523 17.4924 16.2164 16.992 16.5312 16.5611C16.8494 16.1269 17.2737 15.7888 17.804 15.5469C18.3343 15.3016 18.9292 15.179 19.5888 15.179C20.2682 15.179 20.8582 15.3066 21.3587 15.5618C21.8625 15.8137 22.2519 16.1534 22.527 16.581C22.8021 17.0085 22.9396 17.4808 22.9396 17.9979C22.9429 18.5713 22.7739 19.0518 22.4325 19.4396C22.0945 19.8274 21.6503 20.081 21.1001 20.2003V20.2798C21.8161 20.3793 22.3646 20.6444 22.7457 21.0753C23.1302 21.5028 23.3208 22.0348 23.3175 22.6712C23.3175 23.2412 23.1551 23.7517 22.8303 24.2024C22.5088 24.6499 22.0646 25.0012 21.4979 25.2564C20.9344 25.5116 20.2881 25.6392 19.5589 25.6392Z" fill="#717982"/>
</svg>
